<?xml version="1.0" encoding="UTF-8"?>
<svg width="25" height="24" viewBox="0 0 25 24" fill="none" version="1.1" xmlns="http://www.w3.org/2000/svg" xmlns:xlink="http://www.w3.org/1999/xlink">
    <path d="M13.625 11.9999C13.625 12.2224 13.559 12.4399 13.4354 12.6249C13.3118 12.8099 13.1361 12.9541 12.9305 13.0393C12.725 13.1244 12.4988 13.1467 12.2805 13.1033C12.0623 13.0599 11.8618 12.9527 11.7045 12.7954C11.5472 12.6381 11.44 12.4376 11.3966 12.2194C11.3532 12.0012 11.3755 11.775 11.4606 11.5694C11.5458 11.3638 11.69 11.1881 11.875 11.0645C12.06 10.9409 12.2775 10.8749 12.5 10.8749C12.7984 10.8749 13.0845 10.9934 13.2955 11.2044C13.5065 11.4154 13.625 11.7015 13.625 11.9999ZM8.375 10.8749C8.1525 10.8749 7.93499 10.9409 7.74998 11.0645C7.56498 11.1881 7.42078 11.3638 7.33564 11.5694C7.25049 11.775 7.22821 12.0012 7.27162 12.2194C7.31502 12.4376 7.42217 12.6381 7.5795 12.7954C7.73684 12.9527 7.93729 13.0599 8.15552 13.1033C8.37375 13.1467 8.59995 13.1244 8.80552 13.0393C9.01109 12.9541 9.18679 12.8099 9.3104 12.6249C9.43402 12.4399 9.5 12.2224 9.5 11.9999C9.5 11.7015 9.38147 11.4154 9.1705 11.2044C8.95952 10.9934 8.67337 10.8749 8.375 10.8749ZM16.625 10.8749C16.4025 10.8749 16.185 10.9409 16 11.0645C15.815 11.1881 15.6708 11.3638 15.5856 11.5694C15.5005 11.775 15.4782 12.0012 15.5216 12.2194C15.565 12.4376 15.6722 12.6381 15.8295 12.7954C15.9868 12.9527 16.1873 13.0599 16.4055 13.1033C16.6238 13.1467 16.85 13.1244 17.0555 13.0393C17.2611 12.9541 17.4368 12.8099 17.5604 12.6249C17.684 12.4399 17.75 12.2224 17.75 11.9999C17.75 11.7015 17.6315 11.4154 17.4205 11.2044C17.2095 10.9934 16.9234 10.8749 16.625 10.8749ZM22.25 11.9999C22.2504 13.6832 21.8149 15.338 20.986 16.803C20.1572 18.2681 18.9631 19.4937 17.52 20.3604C16.077 21.2271 14.4341 21.7054 12.7514 21.7488C11.0686 21.7922 9.4033 21.3992 7.9175 20.608L4.72531 21.6721C4.46102 21.7602 4.1774 21.773 3.90624 21.709C3.63509 21.645 3.38711 21.5068 3.19011 21.3098C2.99311 21.1128 2.85486 20.8648 2.79087 20.5937C2.72688 20.3225 2.73967 20.0389 2.82781 19.7746L3.89187 16.5824C3.19639 15.2748 2.80793 13.826 2.756 12.3458C2.70406 10.8657 2.99001 9.39316 3.59213 8.04003C4.19425 6.6869 5.09672 5.48873 6.23105 4.53646C7.36537 3.58419 8.70173 2.90285 10.1387 2.54416C11.5756 2.18548 13.0754 2.15886 14.5242 2.46635C15.973 2.77383 17.3327 3.40733 18.5001 4.31875C19.6675 5.23018 20.6119 6.39558 21.2616 7.7265C21.9114 9.05741 22.2494 10.5189 22.25 11.9999ZM20.75 11.9999C20.7496 10.7344 20.4582 9.48593 19.8981 8.3511C19.338 7.21627 18.5244 6.2255 17.5201 5.45544C16.5159 4.68537 15.3479 4.15666 14.1067 3.91021C12.8654 3.66375 11.584 3.70616 10.3618 4.03415C9.13951 4.36215 8.00909 4.96693 7.05796 5.80171C6.10682 6.63649 5.36049 7.6789 4.87668 8.84828C4.39288 10.0177 4.18458 11.2827 4.2679 12.5454C4.35122 13.8082 4.72393 15.0349 5.35719 16.1305C5.41034 16.2225 5.44334 16.3247 5.454 16.4304C5.46467 16.5361 5.45276 16.6429 5.41906 16.7437L4.25 20.2499L7.75625 19.0808C7.83262 19.0548 7.91275 19.0415 7.99344 19.0415C8.12516 19.0417 8.2545 19.0766 8.36844 19.1427C9.62263 19.8684 11.0458 20.2509 12.4948 20.2518C13.9438 20.2527 15.3674 19.872 16.6225 19.1479C17.8776 18.4239 18.9199 17.382 19.6445 16.1272C20.369 14.8724 20.7503 13.4489 20.75 11.9999Z" fill="#4D8FF3"/>
</svg>