<svg width="27" height="26" viewBox="0 0 27 26" fill="none" xmlns="http://www.w3.org/2000/svg">
    <g id="Frame" clip-path="url(#clip0_6292_2956)">
        <path id="Vector" d="M13.428 0.428711C6.16941 0.428711 0.285156 6.09152 0.285156 13.077C0.285156 19.39 5.09128 24.6227 11.3744 25.5716V16.7331H8.03739V13.077H11.3744V10.2904C11.3744 7.12043 13.3366 5.36944 16.3387 5.36944C17.7762 5.36944 19.2807 5.61647 19.2807 5.61647V8.72913H17.6235C15.9909 8.72913 15.4816 9.70418 15.4816 10.7054V13.077H19.1267L18.544 16.7331H15.4816V25.5716C21.7647 24.6227 26.5709 19.39 26.5709 13.077C26.5709 6.09152 20.6866 0.428711 13.428 0.428711Z" fill="#4D8FF3"/>
    </g>
    <defs>
        <clipPath id="clip0_6292_2956">
            <rect width="26.2857" height="25.1429" fill="white" transform="translate(0.285156 0.428711)"/>
        </clipPath>
    </defs>
</svg>