<?xml version="1.0" encoding="UTF-8"?>
<svg viewBox="0 0 29 29" fill="none" version="1.1" xmlns="http://www.w3.org/2000/svg" xmlns:xlink="http://www.w3.org/1999/xlink">
    <g clip-path="url(#clip0_5131_6405)">
        <path d="M14 3.27637C7.64872 3.27637 2.5 8.23133 2.5 14.3436C2.5 19.8675 6.70536 24.4461 12.2031 25.2764V17.5427H9.2832V14.3436H12.2031V11.9053C12.2031 9.13162 13.92 7.5995 16.5468 7.5995C17.8047 7.5995 19.1211 7.81566 19.1211 7.81566V10.5392H17.671C16.2425 10.5392 15.7969 11.3924 15.7969 12.2685V14.3436H18.9863L18.4765 17.5427H15.7969V25.2764C21.2946 24.4461 25.5 19.8675 25.5 14.3436C25.5 8.23133 20.3513 3.27637 14 3.27637Z" fill="white"/>
    </g>
    <defs>
        <clipPath id="clip0_5131_6405">
            <rect width="23" height="22" fill="white" transform="translate(2.5 3.27637)"/>
        </clipPath>
    </defs>
</svg>