<?xml version="1.0" encoding="UTF-8"?>
<svg viewBox="0 0 29 29" fill="none" version="1.1" xmlns="http://www.w3.org/2000/svg" xmlns:xlink="http://www.w3.org/1999/xlink">
    <g clip-path="url(#clip0_5131_6414)">
        <path d="M14.5 6.07776C17.1703 6.07776 17.4863 6.08808 18.541 6.13612C19.5159 6.18057 20.0454 6.34332 20.3979 6.48027C20.8328 6.6404 21.2262 6.8961 21.5491 7.22853C21.8815 7.55141 22.1372 7.9448 22.2973 8.37969C22.4343 8.73218 22.597 9.26171 22.6415 10.2366C22.6895 11.2913 22.6998 11.6073 22.6998 14.2776C22.6998 16.9479 22.6895 17.2639 22.6415 18.3186C22.597 19.2935 22.4343 19.823 22.2973 20.1755C22.1308 20.6067 21.8759 20.9982 21.5491 21.3251C21.2222 21.6519 20.8307 21.9068 20.3995 22.0733C20.047 22.2103 19.5175 22.373 18.5425 22.4175C17.4882 22.4655 17.1719 22.4758 14.5016 22.4758C11.8313 22.4758 11.5149 22.4655 10.4606 22.4175C9.48571 22.373 8.95617 22.2103 8.60368 22.0733C8.1688 21.9132 7.77541 21.6575 7.45252 21.3251C7.1201 21.0022 6.8644 20.6088 6.70427 20.1739C6.56732 19.8214 6.40457 19.2919 6.36011 18.317C6.31208 17.2623 6.30176 16.9463 6.30176 14.276C6.30176 11.6057 6.31208 11.2897 6.36011 10.235C6.40457 9.26012 6.56732 8.73059 6.70427 8.3781C6.8644 7.94322 7.1201 7.54983 7.45252 7.22694C7.77541 6.89451 8.1688 6.63881 8.60368 6.47869C8.95617 6.34174 9.48571 6.17899 10.4606 6.13453C11.5153 6.0865 11.8313 6.07618 14.5016 6.07618L14.5 6.07776ZM14.5016 4.27441C11.7856 4.27441 11.4451 4.28593 10.3785 4.33475C9.31184 4.38358 8.58542 4.55387 7.9503 4.80077C7.28287 5.05202 6.67818 5.44566 6.17831 5.95431C5.66966 6.45418 5.27602 7.05887 5.02477 7.7263C4.77787 8.36143 4.60876 9.08943 4.56034 10.1537C4.51191 11.2179 4.5 11.5601 4.5 14.276C4.5 16.9919 4.51151 17.3325 4.56034 18.3991C4.60916 19.4657 4.77787 20.1906 5.02477 20.8257C5.27612 21.4929 5.66976 22.0973 6.17831 22.5969C6.67801 23.1058 7.28274 23.4997 7.9503 23.7508C8.58542 23.9981 9.31343 24.1672 10.3777 24.2157C11.4419 24.2641 11.7848 24.276 14.5008 24.276C17.2167 24.276 17.5573 24.2645 18.6239 24.2157C19.6905 24.1668 20.4146 23.9981 21.0497 23.7508C21.7142 23.4941 22.3177 23.1012 22.8215 22.5975C23.3252 22.0937 23.7181 21.4902 23.9748 20.8257C24.2221 20.1906 24.3912 19.4626 24.4397 18.3983C24.4881 17.3341 24.5 16.9911 24.5 14.2752C24.5 11.5593 24.4885 11.2187 24.4397 10.1521C24.3908 9.08547 24.2221 8.36143 23.9748 7.7263C23.7238 7.0591 23.3303 6.45466 22.8217 5.95511C22.3219 5.44617 21.7172 5.05225 21.0497 4.80077C20.4146 4.55387 19.6866 4.38477 18.6223 4.33634C17.5581 4.28791 17.2159 4.276 14.5 4.276L14.5016 4.27441Z" fill="white"/>
        <path d="M14.5002 9.14063C13.4846 9.14063 12.4918 9.44179 11.6474 10.006C10.8029 10.5703 10.1448 11.3722 9.75611 12.3105C9.36746 13.2488 9.26577 14.2813 9.4639 15.2774C9.66204 16.2735 10.1511 17.1884 10.8692 17.9066C11.5874 18.6247 12.5023 19.1138 13.4984 19.3119C14.4945 19.51 15.527 19.4083 16.4653 19.0197C17.4036 18.631 18.2055 17.9729 18.7698 17.1284C19.334 16.284 19.6352 15.2912 19.6352 14.2756C19.6352 13.6012 19.5024 12.9335 19.2444 12.3105C18.9864 11.6874 18.6081 11.1213 18.1313 10.6445C17.6545 10.1677 17.0884 9.78943 16.4653 9.53139C15.8423 9.27336 15.1745 9.14057 14.5002 9.14063ZM14.5002 17.61C13.8407 17.61 13.1961 17.4144 12.6477 17.048C12.0994 16.6816 11.672 16.1609 11.4196 15.5516C11.1673 14.9423 11.1012 14.2719 11.2299 13.6251C11.3585 12.9783 11.6761 12.3841 12.1424 11.9178C12.6088 11.4515 13.2029 11.1339 13.8497 11.0053C14.4965 10.8766 15.1669 10.9426 15.7762 11.195C16.3855 11.4474 16.9063 11.8748 17.2726 12.4231C17.639 12.9714 17.8346 13.6161 17.8346 14.2756C17.8346 15.1599 17.4833 16.008 16.858 16.6334C16.2327 17.2587 15.3845 17.61 14.5002 17.61Z" fill="white"/>
        <path d="M19.8387 10.1392C20.5014 10.1392 21.0386 9.60197 21.0386 8.93924C21.0386 8.27651 20.5014 7.73926 19.8387 7.73926C19.1759 7.73926 18.6387 8.27651 18.6387 8.93924C18.6387 9.60197 19.1759 10.1392 19.8387 10.1392Z" fill="white"/>
    </g>
    <defs>
        <clipPath id="clip0_5131_6414">
            <rect width="20" height="20" fill="white" transform="translate(4.5 4.27637)"/>
        </clipPath>
    </defs>
</svg>