<svg width="24" height="24" viewBox="0 0 24 24" fill="none" xmlns="http://www.w3.org/2000/svg">
    <g id="Frame" clip-path="url(#clip0_6335_7186)">
        <path id="Vector" d="M12.0008 2.63031C15.0526 2.63031 15.4137 2.6421 16.6191 2.697C17.7333 2.74781 18.3384 2.93381 18.7413 3.09032C19.2383 3.27332 19.6879 3.56555 20.0569 3.94546C20.4368 4.31448 20.729 4.76407 20.9121 5.26107C21.0686 5.66392 21.2546 6.2691 21.3054 7.38329C21.3603 8.58866 21.3721 8.94977 21.3721 12.0015C21.3721 15.0533 21.3603 15.4144 21.3054 16.6198C21.2546 17.734 21.0686 18.3391 20.9121 18.742C20.7217 19.2348 20.4304 19.6823 20.0569 20.0558C19.6834 20.4293 19.2359 20.7206 18.7431 20.9109C18.3403 21.0675 17.7351 21.2535 16.6209 21.3043C15.416 21.3592 15.0544 21.371 12.0026 21.371C8.95089 21.371 8.58932 21.3592 7.3844 21.3043C6.27022 21.2535 5.66504 21.0675 5.26219 20.9109C4.76518 20.7279 4.31559 20.4357 3.94658 20.0558C3.56667 19.6868 3.27443 19.2372 3.09143 18.7402C2.93492 18.3373 2.74892 17.7322 2.69811 16.618C2.64322 15.4126 2.63142 15.0515 2.63142 11.9997C2.63142 8.94796 2.64322 8.58685 2.69811 7.38148C2.74892 6.26729 2.93492 5.66211 3.09143 5.25926C3.27443 4.76225 3.56667 4.31266 3.94658 3.94365C4.31559 3.56374 4.76518 3.2715 5.26219 3.0885C5.66504 2.93199 6.27022 2.74599 7.3844 2.69518C8.58978 2.64029 8.95089 2.62849 12.0026 2.62849L12.0008 2.63031ZM12.0026 0.569336C8.89872 0.569336 8.50948 0.582492 7.2905 0.638292C6.07152 0.694092 5.24132 0.888712 4.51547 1.17089C3.75268 1.45803 3.06161 1.9079 2.49033 2.48922C1.90902 3.0605 1.45914 3.75157 1.172 4.51435C0.889827 5.24021 0.696568 6.07222 0.641222 7.28848C0.585875 8.50473 0.572266 8.89579 0.572266 11.9997C0.572266 15.1037 0.585422 15.4929 0.641222 16.7119C0.697022 17.9309 0.889827 18.7592 1.172 19.4851C1.45926 20.2475 1.90913 20.9383 2.49033 21.5093C3.06142 22.091 3.75254 22.541 4.51547 22.8281C5.24132 23.1107 6.07333 23.304 7.28959 23.3593C8.50585 23.4147 8.89781 23.4283 12.0017 23.4283C15.1057 23.4283 15.4949 23.4151 16.7139 23.3593C17.9329 23.3035 18.7603 23.1107 19.4862 22.8281C20.2457 22.5347 20.9354 22.0857 21.5111 21.51C22.0868 20.9343 22.5358 20.2446 22.8292 19.4851C23.1118 18.7592 23.3051 17.9272 23.3604 16.711C23.4158 15.4947 23.4294 15.1027 23.4294 11.9988C23.4294 8.89488 23.4162 8.50564 23.3604 7.28666C23.3046 6.06768 23.1118 5.24021 22.8292 4.51435C22.5423 3.75183 22.0926 3.06104 21.5113 2.49013C20.9401 1.90848 20.2491 1.45829 19.4862 1.17089C18.7603 0.888712 17.9283 0.695453 16.7121 0.640107C15.4958 0.58476 15.1048 0.571151 12.0008 0.571151L12.0026 0.569336Z" fill="#4D8FF3"/>
        <path id="Vector_2" d="M12.0013 6.13086C10.8407 6.13086 9.70604 6.47504 8.74097 7.11988C7.77589 7.76473 7.02371 8.68127 6.57953 9.7536C6.13536 10.8259 6.01914 12.0059 6.24558 13.1443C6.47202 14.2827 7.03094 15.3283 7.85167 16.1491C8.6724 16.9698 9.71807 17.5287 10.8565 17.7552C11.9948 17.9816 13.1748 17.8654 14.2471 17.4212C15.3195 16.977 16.236 16.2248 16.8809 15.2598C17.5257 14.2947 17.8699 13.1601 17.8699 11.9994C17.8699 11.2287 17.7182 10.4656 17.4233 9.75353C17.1284 9.0415 16.6961 8.39453 16.1512 7.84958C15.6062 7.30462 14.9592 6.87235 14.2472 6.57745C13.5352 6.28255 12.772 6.1308 12.0013 6.13086ZM12.0013 15.8101C11.2477 15.8101 10.5109 15.5866 9.88422 15.1679C9.25754 14.7492 8.76911 14.154 8.48069 13.4577C8.19226 12.7614 8.1168 11.9952 8.26383 11.256C8.41087 10.5167 8.77381 9.83773 9.30675 9.30479C9.83969 8.77185 10.5187 8.40892 11.2579 8.26188C11.9971 8.11484 12.7633 8.1903 13.4597 8.47873C14.156 8.76716 14.7511 9.25559 15.1699 9.88226C15.5886 10.5089 15.8121 11.2457 15.8121 11.9994C15.8121 13.0101 15.4106 13.9793 14.6959 14.694C13.9813 15.4086 13.012 15.8101 12.0013 15.8101Z" fill="#4D8FF3"/>
        <path id="Vector_3" d="M18.1019 7.27114C18.8593 7.27114 19.4733 6.65714 19.4733 5.89973C19.4733 5.14232 18.8593 4.52832 18.1019 4.52832C17.3445 4.52832 16.7305 5.14232 16.7305 5.89973C16.7305 6.65714 17.3445 7.27114 18.1019 7.27114Z" fill="#4D8FF3"/>
    </g>
    <defs>
        <clipPath id="clip0_6335_7186">
            <rect width="22.8571" height="22.8571" fill="white" transform="translate(0.572266 0.571289)"/>
        </clipPath>
    </defs>
</svg>