<?xml version="1.0" encoding="UTF-8"?>
<svg viewBox="0 0 29 29" fill="none" version="1.1" xmlns="http://www.w3.org/2000/svg" xmlns:xlink="http://www.w3.org/1999/xlink">
    <path d="M14.4955 3.27637C8.41403 3.27637 3.5 8.19944 3.5 14.2718C3.5 18.9325 6.39593 22.9144 10.4864 24.5162C10.3869 23.6474 10.3054 22.308 10.5226 21.3578C10.7217 20.4981 11.8077 15.8918 11.8077 15.8918C11.8077 15.8918 11.4819 15.2311 11.4819 14.2628C11.4819 12.7334 12.3688 11.5931 13.4728 11.5931C14.414 11.5931 14.8665 12.299 14.8665 13.1406C14.8665 14.0818 14.2692 15.4936 13.9525 16.8058C13.69 17.9008 14.5045 18.7967 15.5815 18.7967C17.5362 18.7967 19.0385 16.7334 19.0385 13.7651C19.0385 11.1316 17.1471 9.29447 14.4412 9.29447C11.31 9.29447 9.47285 11.6383 9.47285 14.0637C9.47285 15.0049 9.83483 16.0184 10.2873 16.5705C10.3778 16.6791 10.3869 16.7786 10.3597 16.8872C10.2783 17.2311 10.0882 17.9822 10.052 18.1361C10.0068 18.3352 9.88913 18.3804 9.68099 18.2809C8.32352 17.6293 7.47285 15.6203 7.47285 14.0094C7.47285 10.5433 9.98868 7.35781 14.7398 7.35781C18.5498 7.35781 21.5181 10.0727 21.5181 13.7107C21.5181 17.5026 19.129 20.5524 15.8167 20.5524C14.7036 20.5524 13.6538 19.9732 13.3009 19.2854C13.3009 19.2854 12.7489 21.385 12.6131 21.9008C12.3688 22.8601 11.6991 24.0546 11.2466 24.7877C12.2783 25.1044 13.3643 25.2764 14.5045 25.2764C20.5769 25.2764 25.5 20.3533 25.5 14.2809C25.491 8.19944 20.5679 3.27637 14.4955 3.27637Z" fill="white"/>
</svg>