<svg width="26" height="26" viewBox="0 0 26 26" fill="none" xmlns="http://www.w3.org/2000/svg">
    <g id="Group 1159">
        <path id="Vector" d="M12.994 0.428711C6.04377 0.428711 0.427734 6.05508 0.427734 12.995C0.427734 18.3214 3.73736 22.8722 8.41223 24.7028C8.29845 23.7099 8.20538 22.1792 8.45359 21.0932C8.68113 20.1107 9.92223 14.8463 9.92223 14.8463C9.92223 14.8463 9.54991 14.0913 9.54991 12.9846C9.54991 11.2367 10.5635 9.93357 11.8253 9.93357C12.9009 9.93357 13.418 10.7403 13.418 11.7021C13.418 12.7778 12.7354 14.3912 12.3734 15.8909C12.0735 17.1423 13.0043 18.1663 14.2351 18.1663C16.4691 18.1663 18.186 15.8081 18.186 12.4158C18.186 9.40609 16.0244 7.30654 12.9319 7.30654C9.3534 7.30654 7.25384 9.98526 7.25384 12.7571C7.25384 13.8327 7.66754 14.9911 8.18468 15.622C8.28812 15.7461 8.29845 15.8599 8.26743 15.984C8.17435 16.377 7.95714 17.2354 7.91578 17.4113C7.86406 17.6388 7.7296 17.6905 7.49172 17.5767C5.94033 16.8321 4.96813 14.536 4.96813 12.695C4.96813 8.73382 7.84337 5.09321 13.2732 5.09321C17.6275 5.09321 21.0199 8.19599 21.0199 12.3537C21.0199 16.6873 18.2894 20.1727 14.504 20.1727C13.2319 20.1727 12.0321 19.5108 11.6288 18.7248C11.6288 18.7248 10.9979 21.1243 10.8427 21.7138C10.5635 22.8101 9.79813 24.1753 9.28099 25.0131C10.4601 25.3751 11.7012 25.5716 13.0043 25.5716C19.9442 25.5716 25.5706 19.9452 25.5706 13.0053C25.5603 6.05508 19.9339 0.428711 12.994 0.428711Z" fill="#4D8FF3"/>
    </g>
</svg>