<svg width="27" height="22" viewBox="0 0 27 22" fill="none" xmlns="http://www.w3.org/2000/svg">
    <g id="Logo_1_">
        <path id="white_background" d="M24.0224 5.67465C24.0384 5.90638 24.0384 6.1381 24.0384 6.37197C24.0384 13.4979 18.6136 21.7162 8.69415 21.7162V21.712C5.7639 21.7162 2.89452 20.8769 0.427734 19.2943C0.853816 19.3456 1.28203 19.3712 1.71132 19.3723C4.13966 19.3744 6.4986 18.5596 8.40902 17.0592C6.10135 17.0155 4.07773 15.5108 3.37079 13.3142C4.17918 13.4701 5.01212 13.4381 5.80555 13.2213C3.28964 12.713 1.47959 10.5025 1.47959 7.93534C1.47959 7.91184 1.47959 7.88942 1.47959 7.86699C2.22924 8.28453 3.06859 8.51626 3.92716 8.54189C1.55754 6.95823 0.827119 3.80587 2.25807 1.34121C4.9961 4.71036 9.03587 6.75854 13.3725 6.97532C12.9379 5.10227 13.5316 3.13951 14.9327 1.82283C17.1047 -0.21895 20.5208 -0.114298 22.5626 2.05669C23.7704 1.81855 24.928 1.37539 25.9873 0.747476C25.5847 1.99582 24.7422 3.05622 23.6166 3.73005C24.6856 3.60404 25.7299 3.31785 26.7134 2.88109C25.9894 3.96605 25.0775 4.91112 24.0224 5.67465Z" fill="#4D8FF3"/>
    </g>
</svg>