<?xml version="1.0" encoding="UTF-8"?>
<svg viewBox="0 0 29 29" fill="none" version="1.1" xmlns="http://www.w3.org/2000/svg" xmlns:xlink="http://www.w3.org/1999/xlink">
    <path d="M24.1453 10.4914C24.1594 10.6942 24.1594 10.897 24.1594 11.1016C24.1594 17.3368 19.4127 24.5278 10.7331 24.5278V24.5241C8.16915 24.5278 5.65844 23.7934 3.5 22.4086C3.87282 22.4535 4.24751 22.4759 4.62314 22.4769C6.74794 22.4787 8.812 21.7658 10.4836 20.453C8.46441 20.4147 6.69374 19.0981 6.07518 17.1761C6.78251 17.3125 7.51133 17.2845 8.20559 17.0948C6.00416 16.65 4.42037 14.7158 4.42037 12.4695C4.42037 12.449 4.42037 12.4294 4.42037 12.4097C5.07632 12.7751 5.81075 12.9778 6.56199 13.0003C4.48858 11.6146 3.84946 8.85626 5.10154 6.69969C7.49732 9.64768 11.0321 11.4398 14.8267 11.6295C14.4464 9.99061 14.9659 8.2732 16.1918 7.1211C18.0924 5.33454 21.0815 5.42611 22.868 7.32573C23.9248 7.11736 24.9377 6.72959 25.8646 6.18016C25.5124 7.27247 24.7751 8.20032 23.7903 8.78992C24.7256 8.67966 25.6394 8.42924 26.5 8.04708C25.8665 8.99642 25.0685 9.82335 24.1453 10.4914Z" fill="white"/>
</svg>