<?xml version="1.0" encoding="UTF-8"?>
<svg width="40" height="41" viewBox="0 0 40 41" fill="none" version="1.1" xmlns="http://www.w3.org/2000/svg" xmlns:xlink="http://www.w3.org/1999/xlink">
    <path fill-rule="evenodd" clip-rule="evenodd" d="M20.6815 2.50729C25.6282 2.30064 29.3516 6.5292 32.7168 10.1189C35.9111 13.5264 38.721 17.3764 38.9694 22.0154C39.2304 26.8902 37.8425 32.1006 34.0617 35.2413C30.4731 38.2222 25.3596 37.499 20.6815 37.2067C16.4206 36.9404 12.257 36.2662 8.89231 33.6686C5.01852 30.6779 0.847351 26.8715 1.0043 22.0154C1.15943 17.2155 6.19192 14.4846 9.62224 11.0837C13.0614 7.67412 15.8149 2.71059 20.6815 2.50729Z" fill="#F1F2FF"/>
    <path d="M26.8748 18.7062L30.6373 15.1662L30.6536 15.15C31.3569 14.4467 31.752 13.4928 31.752 12.4981C31.752 11.5035 31.3569 10.5496 30.6536 9.84625C29.9503 9.14292 28.9963 8.7478 28.0017 8.7478C27.0071 8.7478 26.0531 9.14292 25.3498 9.84625L25.3336 9.8625L21.7936 13.625L11.2561 9.79375C11.1221 9.74495 10.9769 9.73538 10.8377 9.76616C10.6984 9.79693 10.5708 9.86677 10.4698 9.9675L7.46982 12.9675C7.39076 13.0459 7.33016 13.141 7.29242 13.2458C7.25468 13.3506 7.24075 13.4624 7.25164 13.5733C7.26253 13.6841 7.29798 13.7911 7.35539 13.8866C7.41281 13.982 7.49075 14.0634 7.58357 14.125L15.8236 19.6175L13.6898 21.75H10.9998C10.801 21.7502 10.6103 21.8293 10.4698 21.97L7.46982 24.97C7.38184 25.0576 7.31698 25.1657 7.28108 25.2846C7.24519 25.4035 7.23937 25.5294 7.26415 25.6511C7.28893 25.7728 7.34354 25.8864 7.42307 25.9818C7.50261 26.0771 7.60457 26.1513 7.71982 26.1975L12.4223 28.0725L14.2973 32.7675V32.7825C14.3729 32.9659 14.5181 33.1118 14.7011 33.1884C14.884 33.265 15.0899 33.2661 15.2736 33.1912C15.3714 33.1516 15.4596 33.0915 15.5323 33.015L18.5211 30.0262C18.6641 29.8881 18.7463 29.6988 18.7498 29.5V26.81L20.8836 24.6762L26.3748 32.9162C26.4364 33.0084 26.5177 33.0858 26.6128 33.1428C26.7079 33.1998 26.8145 33.235 26.9248 33.2459C27.0351 33.2568 27.1465 33.2431 27.2509 33.2057C27.3553 33.1684 27.4502 33.1084 27.5286 33.03L30.5286 30.03C30.6293 29.929 30.6991 29.8014 30.7299 29.6622C30.7607 29.5229 30.7511 29.3778 30.7023 29.2437L26.8748 18.7062ZM27.1173 31.3225L21.6248 23.0825C21.5633 22.9902 21.482 22.9128 21.3869 22.8557C21.2918 22.7987 21.1852 22.7634 21.0748 22.7525H21.0011C20.8022 22.7527 20.6116 22.8318 20.4711 22.9725L17.4711 25.9725C17.3305 26.1122 17.251 26.3018 17.2498 26.5V29.19L15.2748 31.165L13.6961 27.2212C13.6585 27.1268 13.6021 27.041 13.5303 26.969C13.4586 26.897 13.3729 26.8404 13.2786 26.8025L9.33482 25.225L11.3111 23.25H13.9998C14.0985 23.2501 14.1962 23.2307 14.2874 23.1929C14.3785 23.1552 14.4613 23.0998 14.5311 23.03L17.5311 20.03C17.6094 19.9515 17.6693 19.8566 17.7066 19.7521C17.7438 19.6477 17.7574 19.5363 17.7464 19.4259C17.7354 19.3156 17.7001 19.209 17.643 19.114C17.5858 19.019 17.5083 18.9377 17.4161 18.8762L9.17732 13.3825L11.1923 11.3662L21.7498 15.2037C21.8876 15.2538 22.0371 15.2624 22.1797 15.2284C22.3224 15.1944 22.4519 15.1193 22.5523 15.0125L26.4273 10.9C26.8563 10.5155 27.4164 10.3102 27.9923 10.3264C28.5681 10.3425 29.1159 10.579 29.5226 10.987C29.9293 11.395 30.164 11.9434 30.1784 12.5193C30.1927 13.0952 29.9857 13.6547 29.5998 14.0825L25.4873 17.9575C25.3805 18.0579 25.3054 18.1875 25.2715 18.3301C25.2375 18.4727 25.246 18.6222 25.2961 18.76L29.1336 29.3112L27.1173 31.3225Z" fill="#8D8BFA"/>
</svg>
