<?xml version="1.0" encoding="UTF-8"?>
<svg width="40" height="41" viewBox="0 0 40 41" fill="none" version="1.1" xmlns="http://www.w3.org/2000/svg" xmlns:xlink="http://www.w3.org/1999/xlink">
    <path fill-rule="evenodd" clip-rule="evenodd" d="M20.4909 3.30208C25.0804 3.72995 29.7862 4.26941 33.1089 7.24764C36.4868 10.2754 37.931 14.6293 37.9978 18.9942C38.0658 23.4289 36.5288 27.6772 33.4741 31.0806C30.0893 34.8518 25.7694 38.5517 20.4909 38.4995C15.2418 38.4475 11.2067 34.5289 7.78104 30.8262C4.66395 27.4569 2.90471 23.4202 2.44565 18.9942C1.92454 13.9699 1.10203 8.07872 5.06435 4.6331C8.98752 1.22152 15.149 2.80407 20.4909 3.30208Z" fill="#EBF5F8"/>
    <path d="M32.64 22.3312C32.2976 22.0675 31.8989 21.8865 31.475 21.8024C31.051 21.7183 30.6134 21.7333 30.1963 21.8462L29.6562 21.9712C32.375 19.4437 33.75 16.9387 33.75 14.5C33.75 11.33 31.2012 8.74999 28.0675 8.74999C27.1837 8.74445 26.3108 8.94491 25.518 9.33546C24.7251 9.72602 24.0342 10.2959 23.5 11C22.9658 10.2959 22.2749 9.72602 21.482 9.33546C20.6892 8.94491 19.8163 8.74445 18.9325 8.74999C15.7987 8.74999 13.25 11.33 13.25 14.5C13.25 15.9225 13.7038 17.3112 14.6613 18.795C13.8764 18.916 13.1509 19.2853 12.5913 19.8487L9.69 22.75H6C5.53587 22.75 5.09075 22.9344 4.76256 23.2626C4.43437 23.5907 4.25 24.0359 4.25 24.5V29.5C4.25 29.9641 4.43437 30.4092 4.76256 30.7374C5.09075 31.0656 5.53587 31.25 6 31.25H19C19.0615 31.25 19.1228 31.2424 19.1825 31.2275L27.1825 29.2275C27.2204 29.2174 27.2575 29.2049 27.2938 29.19L32.1462 27.125L32.1875 27.1062C32.6165 26.892 32.984 26.572 33.2552 26.1765C33.5264 25.781 33.6925 25.323 33.7377 24.8455C33.783 24.3681 33.706 23.887 33.5139 23.4476C33.3219 23.0081 33.0211 22.6248 32.64 22.3337V22.3312ZM18.9325 10.25C19.7573 10.239 20.5667 10.4743 21.257 10.9259C21.9473 11.3775 22.4872 12.0248 22.8075 12.785C22.864 12.9225 22.9601 13.0402 23.0837 13.123C23.2072 13.2058 23.3525 13.25 23.5012 13.25C23.65 13.25 23.7953 13.2058 23.9188 13.123C24.0424 13.0402 24.1385 12.9225 24.195 12.785C24.5153 12.0248 25.0552 11.3775 25.7455 10.9259C26.4358 10.4743 27.2452 10.239 28.07 10.25C30.335 10.25 32.25 12.1962 32.25 14.5C32.25 17.03 30.2275 19.875 26.4 22.7187L24.5413 23.1462C24.7266 22.6544 24.79 22.125 24.7258 21.6033C24.6616 21.0816 24.4719 20.5833 24.1729 20.151C23.8738 19.7187 23.4744 19.3655 23.0089 19.1215C22.5434 18.8774 22.0256 18.75 21.5 18.75H16.4587C15.295 17.2087 14.75 15.8512 14.75 14.5C14.75 12.1962 16.665 10.25 18.9325 10.25ZM5.75 29.5V24.5C5.75 24.4337 5.77634 24.3701 5.82322 24.3232C5.87011 24.2763 5.9337 24.25 6 24.25H9.25V29.75H6C5.9337 29.75 5.87011 29.7237 5.82322 29.6768C5.77634 29.6299 5.75 29.5663 5.75 29.5ZM31.535 25.75L26.76 27.7837L18.9075 29.75H10.75V23.8112L13.6512 20.9087C13.8597 20.6992 14.1077 20.533 14.3809 20.4199C14.654 20.3069 14.9469 20.2491 15.2425 20.25H21.5C21.9641 20.25 22.4092 20.4344 22.7374 20.7626C23.0656 21.0907 23.25 21.5359 23.25 22C23.25 22.4641 23.0656 22.9092 22.7374 23.2374C22.4092 23.5656 21.9641 23.75 21.5 23.75H18C17.8011 23.75 17.6103 23.829 17.4697 23.9697C17.329 24.1103 17.25 24.3011 17.25 24.5C17.25 24.6989 17.329 24.8897 17.4697 25.0303C17.6103 25.171 17.8011 25.25 18 25.25H22C22.0564 25.2501 22.1125 25.2438 22.1675 25.2312L30.5425 23.305L30.5725 23.2975C30.8877 23.2116 31.2236 23.2451 31.5156 23.3917C31.8075 23.5383 32.0351 23.7876 32.1544 24.0918C32.2738 24.3959 32.2766 24.7334 32.1622 25.0395C32.0479 25.3456 31.8245 25.5986 31.535 25.75Z" fill="#2568CB"/>
</svg>
