<?xml version="1.0" encoding="UTF-8"?>
<svg width="40" height="41" viewBox="0 0 40 41" fill="none" version="1.1" xmlns="http://www.w3.org/2000/svg" xmlns:xlink="http://www.w3.org/1999/xlink">
    <g clip-path="url(#clip0_4703_77522)">
        <path fill-rule="evenodd" clip-rule="evenodd" d="M4.75054 13.391C6.89575 9.48266 10.1848 6.50836 14.2977 4.73609C18.6003 2.88209 23.4712 1.59848 27.7976 3.4599C32.1383 5.32749 34.3926 9.81926 36.2017 14.1603C38.0494 18.5936 39.5904 23.3757 37.9715 27.8717C36.2642 32.613 32.4536 36.6611 27.5882 38.0812C22.9978 39.4211 18.5624 36.6606 14.1224 34.8329C9.52736 32.9413 3.79884 32.0053 1.81781 27.4729C-0.188189 22.8834 2.35299 17.759 4.75054 13.391Z" fill="#FFF9E1"/>
        <path d="M34.6963 19.2225L32.9463 14.8475C32.8173 14.5221 32.5933 14.243 32.3035 14.0468C32.0136 13.8506 31.6713 13.7463 31.3213 13.7475H26.75V12.5C26.75 12.3011 26.671 12.1103 26.5303 11.9697C26.3897 11.829 26.1989 11.75 26 11.75H7C6.53587 11.75 6.09075 11.9344 5.76256 12.2626C5.43437 12.5908 5.25 13.0359 5.25 13.5V27.5C5.25 27.9641 5.43437 28.4092 5.76256 28.7374C6.09075 29.0656 6.53587 29.25 7 29.25H9.325C9.49714 30.0977 9.95705 30.8599 10.6268 31.4073C11.2966 31.9547 12.135 32.2538 13 32.2538C13.865 32.2538 14.7034 31.9547 15.3732 31.4073C16.043 30.8599 16.5029 30.0977 16.675 29.25H23.325C23.4971 30.0977 23.957 30.8599 24.6268 31.4073C25.2966 31.9547 26.135 32.2538 27 32.2538C27.865 32.2538 28.7034 31.9547 29.3732 31.4073C30.043 30.8599 30.5029 30.0977 30.675 29.25H33C33.4641 29.25 33.9092 29.0656 34.2374 28.7374C34.5656 28.4092 34.75 27.9641 34.75 27.5V19.5C34.7498 19.4049 34.7316 19.3108 34.6963 19.2225ZM26.75 15.25H31.3225C31.3726 15.25 31.4215 15.2649 31.463 15.293C31.5044 15.3211 31.5365 15.361 31.555 15.4075L32.8925 18.75H26.75V15.25ZM6.75 13.5C6.75 13.4337 6.77634 13.3701 6.82322 13.3232C6.87011 13.2763 6.9337 13.25 7 13.25H25.25V21.75H6.75V13.5ZM13 30.75C12.555 30.75 12.12 30.618 11.75 30.3708C11.38 30.1236 11.0916 29.7722 10.9213 29.361C10.751 28.9499 10.7064 28.4975 10.7932 28.061C10.88 27.6246 11.0943 27.2237 11.409 26.909C11.7237 26.5943 12.1246 26.3801 12.561 26.2932C12.9975 26.2064 13.4499 26.251 13.861 26.4213C14.2722 26.5916 14.6236 26.88 14.8708 27.25C15.118 27.62 15.25 28.055 15.25 28.5C15.25 29.0967 15.0129 29.669 14.591 30.091C14.169 30.5129 13.5967 30.75 13 30.75ZM23.325 27.75H16.675C16.5029 26.9023 16.043 26.1401 15.3732 25.5927C14.7034 25.0453 13.865 24.7462 13 24.7462C12.135 24.7462 11.2966 25.0453 10.6268 25.5927C9.95705 26.1401 9.49714 26.9023 9.325 27.75H7C6.9337 27.75 6.87011 27.7237 6.82322 27.6768C6.77634 27.6299 6.75 27.5663 6.75 27.5V23.25H25.25V25.185C24.76 25.4443 24.3333 25.8087 24.0005 26.2521C23.6677 26.6956 23.4371 27.207 23.325 27.75ZM27 30.75C26.555 30.75 26.12 30.618 25.75 30.3708C25.38 30.1236 25.0916 29.7722 24.9213 29.361C24.751 28.9499 24.7064 28.4975 24.7932 28.061C24.8801 27.6246 25.0943 27.2237 25.409 26.909C25.7237 26.5943 26.1246 26.3801 26.561 26.2932C26.9975 26.2064 27.4499 26.251 27.861 26.4213C28.2722 26.5916 28.6236 26.88 28.8708 27.25C29.118 27.62 29.25 28.055 29.25 28.5C29.25 29.0967 29.0129 29.669 28.591 30.091C28.169 30.5129 27.5967 30.75 27 30.75ZM33.25 27.5C33.25 27.5663 33.2237 27.6299 33.1768 27.6768C33.1299 27.7237 33.0663 27.75 33 27.75H30.675C30.501 26.9035 30.0405 26.1429 29.371 25.5964C28.7016 25.0499 27.8642 24.751 27 24.75C26.9163 24.75 26.8325 24.75 26.75 24.7588V20.25H33.25V27.5Z" fill="#FFB70B"/>
    </g>
    <defs>
        <clipPath id="clip0_4703_77522">
            <rect width="40" height="40" fill="white" transform="translate(0 0.5)"/>
        </clipPath>
    </defs>
</svg>
