<?xml version="1.0" encoding="UTF-8"?>
<svg viewBox="0 0 104 104" fill="none" version="1.1" xmlns="http://www.w3.org/2000/svg" xmlns:xlink="http://www.w3.org/1999/xlink">
    <path fill-rule="evenodd" clip-rule="evenodd" d="M52.8161 4.01974C65.5075 4.37762 77.6463 10.3428 85.7172 20.1439C93.149 29.1689 92.9969 41.3554 93.187 53.045C93.3819 65.0273 94.6266 77.9546 86.8053 87.0343C78.5852 96.577 65.3882 100.67 52.8161 99.9114C40.8953 99.1926 30.7376 91.9945 22.693 83.1681C15.072 74.8064 10.9156 64.3292 10.1011 53.045C9.21043 40.7074 9.87971 27.5608 18.0056 18.2345C26.5649 8.41071 39.7917 3.65247 52.8161 4.01974Z" fill="#FEF2E2"/>
    <path d="M15.8487 88.1014C19.2702 72.3832 21.3778 56.5519 22.2504 40.4905C21.1334 40.7025 20.0114 40.9068 18.8944 41.1188C24.218 54.6958 31.086 68.4029 32.7897 83.0206C33.0473 85.2194 36.4901 85.0534 36.2303 82.8339C34.4841 67.8577 27.6246 53.9577 22.1722 40.0502C21.4321 38.1621 18.917 38.7396 18.8162 40.6786C17.9567 56.434 15.8366 71.9536 12.4885 87.3654C12.0155 89.5385 15.3807 90.2823 15.8551 88.1028L15.8487 88.1014Z" fill="#F99143"/>
    <path d="M16.2187 75.4721C20.7398 72.5049 25.6092 70.3376 30.8374 68.9522C32.9884 68.383 31.9158 65.0994 29.7713 65.6701C24.2731 67.1238 19.1092 69.4413 14.3525 72.5648C12.4945 73.7878 14.3557 76.6873 16.2137 75.4643L16.2187 75.4721Z" fill="#F99143"/>
    <path d="M33.5843 37.1932C36.9011 50.2453 39.2767 63.4405 40.7271 76.8293C41.8438 76.6171 42.9654 76.4128 44.0821 76.2006C43.9025 75.765 43.7307 75.3243 43.5512 74.8887C42.719 72.8391 39.44 73.8875 40.2743 75.9577C40.4539 76.3933 40.6257 76.834 40.8053 77.2696C41.4972 78.9795 44.387 78.7056 44.1603 76.6409C42.6805 62.9568 40.2435 49.4593 36.8548 36.1228C36.3065 33.9675 33.0297 35.0365 33.5779 37.1918L33.5843 37.1932Z" fill="#F99143"/>
    <path d="M37.5332 38.1629C37.7598 33.0705 43.6828 32.2929 46.1501 36.2432C47.4405 38.3113 47.3344 41.1008 46.758 43.3442C45.7951 47.1142 43.3017 50.408 41.3236 53.6737C40.1718 55.5764 43.2328 57.1729 44.3754 55.2817C48.2802 48.833 54.8212 38.4973 47.0676 32.0673C41.5882 27.5247 34.3802 31.7063 34.0901 38.3489C33.9955 40.5636 37.4336 40.3698 37.5332 38.1629Z" fill="#F99143"/>
    <path d="M42.9356 56.7858C48.6715 49.7682 58.7251 54.9865 59.032 63.2454C59.3047 70.6179 52.5201 75.4403 45.6019 74.0947C43.4285 73.673 42.6784 77.0446 44.8646 77.4691C54.7331 79.393 63.9758 71.5726 62.267 61.2627C60.5459 50.8561 47.4607 45.7999 40.3892 54.4509C38.988 56.1705 41.5187 58.5154 42.9278 56.7908L42.9356 56.7858Z" fill="#F99143"/>
    <path d="M76.7612 37.9575C79.6814 33.5432 78.8754 27.8437 75.0247 24.2428C71.7097 21.135 66.6188 20.4839 63.6977 24.4416C58.0605 32.0933 62.7204 46.535 65.0677 54.4442C66.1687 58.148 67.9102 63.3073 72.6002 63.4008C78.0962 63.5164 84.1497 56.7813 87.4857 53.1023C88.9775 51.4558 86.4398 49.1153 84.9479 50.7618C82.6348 53.3158 74.3399 62.8286 70.2139 58.1876C67.5667 55.2125 66.97 48.4314 66.223 44.6708C65.2956 40.0185 62.9125 30.5244 66.5761 26.3265C68.5332 24.0838 71.3262 25.2856 73.0736 27.1646C75.5592 29.8359 75.6848 33.3732 73.7083 36.3499C72.4798 38.2017 75.5433 39.7915 76.7612 37.9575Z" fill="#F99143"/>
</svg>