<?xml version="1.0" encoding="UTF-8"?>
<svg viewBox="0 0 104 104" fill="none" version="1.1" xmlns="http://www.w3.org/2000/svg" xmlns:xlink="http://www.w3.org/1999/xlink">
    <path fill-rule="evenodd" clip-rule="evenodd" d="M49.453 4.68063C61.235 5.74434 71.9577 10.5438 80.63 18.5897C89.7022 27.0067 97.9896 37.3915 98.0489 49.7667C98.1085 62.1829 89.5722 72.3287 80.9305 81.2442C72.1054 90.3491 62.1064 99.0818 49.453 99.9028C36.1091 100.769 22.2213 95.8402 13.6077 85.612C5.48094 75.962 7.49306 62.3802 7.23121 49.7667C6.9602 36.7128 3.163 21.9318 12.0878 12.4015C21.1252 2.75109 36.2852 3.4918 49.453 4.68063Z" fill="#FFF9E1"/>
    <path d="M69.3569 39.3667C53.7303 49.43 36.3754 56.3824 20.8336 66.5827C21.7337 67.1502 22.6272 67.7241 23.5272 68.2915C27.3556 54.3019 34.1645 40.7363 39.8842 27.425C40.7647 25.3771 37.6407 23.9032 36.7602 25.9446C30.9165 39.5493 24.0359 53.3824 20.1292 67.6915C19.7053 69.2307 21.6684 70.1568 22.8228 69.4003C38.3646 59.1999 55.7195 52.2475 71.3461 42.1841C73.2244 40.9776 71.2287 38.1536 69.3634 39.3602L69.3569 39.3667Z" fill="#FFB70B"/>
    <path d="M71.4122 39.0466C61.1205 35.0682 48.7745 31.6508 39.7547 25.2006C37.9546 23.9092 35.7111 26.544 37.5242 27.8354C46.8375 34.4943 59.3139 38.0618 69.9317 42.1641C71.9991 42.9663 73.4861 39.8423 71.4122 39.0401V39.0466Z" fill="#FFB70B"/>
    <path d="M97.8057 38.8122C67.3287 55.0583 37.3212 74.0632 5.27892 87.1006C6.00285 87.8897 6.72023 88.6724 7.44417 89.4615C16.8097 64.8608 26.3317 40.3122 35.8146 15.7571C35.8016 15.7897 33.2319 16.1223 34.9668 17.068C35.8929 17.5701 36.8516 18.0136 37.8038 18.4637C40.4518 19.7159 43.1583 20.8376 45.8584 21.9659C52.9478 24.9269 60.1219 27.6727 67.2961 30.4054C77.5094 34.299 87.7685 38.0882 98.0536 41.7861C100.134 42.5362 101.628 39.4187 99.534 38.6622C89.875 35.1925 80.2552 31.6249 70.6549 27.9987C58.8697 23.5442 45.9954 19.6246 35.0972 13.1809C34.3276 12.7244 33.1146 13.1809 32.795 14.0027C23.273 38.6491 13.7183 63.289 4.32017 87.9811C3.81146 89.3181 4.97889 90.9486 6.48546 90.3421C38.7886 77.1938 69.07 58.0127 99.7949 41.6361C101.758 40.5926 99.7492 37.7752 97.8122 38.8122H97.8057Z" fill="#FFB70B"/>
    <path d="M90.514 42.1184C89.4771 41.7923 88.7074 41.0423 88.0813 40.1879C86.7704 38.3879 83.9399 40.3706 85.2573 42.1706C86.4769 43.8402 87.9574 44.9098 89.9205 45.5164C90.8205 45.7968 91.7728 44.949 91.9162 44.1141C92.0923 43.0967 91.4141 42.3923 90.514 42.1184Z" fill="#FFB70B"/>
    <path d="M84.1877 47.1473C83.1181 45.7777 81.8267 44.6037 80.5549 43.4363C78.9114 41.9232 76.694 44.5711 78.3245 46.0712C79.381 47.0429 80.4767 47.9951 81.3571 49.1299C82.7267 50.8778 85.5573 48.9017 84.1811 47.1473H84.1877Z" fill="#FFB70B"/>
    <path d="M78.2977 50.3234C77.2934 49.2473 76.289 48.1776 75.1411 47.258C73.3998 45.8689 71.1692 48.5037 72.9106 49.8929C74.0585 50.8125 75.0629 51.8821 76.0672 52.9582C76.7129 53.6495 77.9455 53.4083 78.4999 52.7561C79.1651 51.9734 78.9369 51.0082 78.2977 50.3234Z" fill="#FFB70B"/>
    <path d="M71.6464 53.7925C70.7855 52.9903 70.0028 52.1294 69.2854 51.1967C67.9288 49.4358 65.0984 51.412 66.4614 53.1794C67.3549 54.3403 68.3463 55.4295 69.4159 56.4274C71.0463 57.9535 73.2638 55.3056 71.6464 53.7925Z" fill="#FFB70B"/>
    <path d="M65.6271 56.9043C64.6618 55.8673 63.7357 54.8173 62.9139 53.6694C61.6096 51.8628 58.7855 53.8455 60.0899 55.652C61.0878 57.0412 62.2357 58.2935 63.4031 59.5392C64.0488 60.2305 65.2814 59.9891 65.8358 59.3369C66.501 58.5543 66.2727 57.5891 65.6336 56.9043H65.6271Z" fill="#FFB70B"/>
    <path d="M59.2933 60.6348C58.8759 58.7565 57.8324 57.3999 56.1497 56.4608C54.1997 55.3716 52.7388 58.5087 54.6693 59.5848C55.1845 59.8718 55.7193 60.3674 55.8497 60.9674C56.0519 61.887 56.7106 62.6175 57.7346 62.5197C58.5824 62.4414 59.4955 61.5544 59.2868 60.6348H59.2933Z" fill="#FFB70B"/>
    <path d="M52.4005 63.0285C51.9114 62.4416 51.2918 61.7437 51.1157 60.9741C50.907 60.0545 50.2613 59.3241 49.2308 59.4219C48.383 59.5002 47.4699 60.3871 47.6786 61.3067C47.9982 62.7285 48.6504 63.9024 49.5765 65.0177C50.1765 65.7416 51.1679 66.0156 51.9831 65.4416C52.707 64.9329 53.0071 63.759 52.4005 63.0351V63.0285Z" fill="#FFB70B"/>
    <path d="M45.6765 66.7453C44.9134 65.8061 44.2678 64.8083 43.3938 63.9604C41.7894 62.4017 39.5785 65.0561 41.1633 66.5953C41.8155 67.2279 42.2786 68.0236 42.8525 68.728C44.2482 70.4498 47.0852 68.4736 45.6765 66.7453Z" fill="#FFB70B"/>
    <path d="M38.9128 69.6418C38.1497 68.7026 37.5041 67.7048 36.6301 66.8569C35.0257 65.2982 32.8148 67.9525 34.3996 69.4917C35.0518 70.1244 35.5149 70.92 36.0888 71.6244C37.4845 73.3462 40.3215 71.3701 38.9128 69.6418Z" fill="#FFB70B"/>
    <path d="M32.8022 72.6477C32.2283 72.139 31.9152 71.4542 31.6348 70.7629C30.8 68.7019 27.5586 69.8954 28.3999 71.9694C28.9086 73.2216 29.5543 74.3825 30.5782 75.289C32.2479 76.7695 34.4718 74.1282 32.8087 72.6542L32.8022 72.6477Z" fill="#FFB70B"/>
    <path d="M27.0823 76.4763C26.2279 75.6936 25.38 74.9045 24.5257 74.1218C22.8821 72.6087 20.6647 75.2566 22.2952 76.7567C23.1495 77.5393 23.9974 78.3219 24.8517 79.1111C26.4953 80.6242 28.7128 77.9763 27.0823 76.4763Z" fill="#FFB70B"/>
    <path d="M19.2423 80.2917C18.6423 79.5808 18.0357 78.8634 17.4357 78.1525C16.8292 77.4351 15.8509 77.1546 15.0291 77.7351C14.3117 78.2372 13.9987 79.4243 14.6117 80.1417C15.2118 80.8526 15.8183 81.5635 16.4183 82.2809C17.0248 82.9983 18.0031 83.2787 18.8249 82.6982C19.5423 82.1961 19.8554 81.0091 19.2423 80.2917Z" fill="#FFB70B"/>
</svg>