<?xml version="1.0" encoding="UTF-8"?>
<svg viewBox="0 0 104 104" fill="none" version="1.1" xmlns="http://www.w3.org/2000/svg" xmlns:xlink="http://www.w3.org/1999/xlink">
    <path fill-rule="evenodd" clip-rule="evenodd" d="M52.9086 6.13887C65.1473 7.27987 77.6961 8.71843 86.5566 16.6604C95.5644 24.7343 99.4155 36.3449 99.5938 47.9844C99.775 59.8104 95.6765 71.1391 87.5304 80.215C78.5043 90.2714 66.9848 100.138 52.9086 99.9985C38.9112 99.8599 28.1507 89.4105 19.0157 79.5364C10.7035 70.5516 6.01218 59.7873 4.78801 47.9844C3.3984 34.5864 1.20503 18.8766 11.7712 9.68827C22.233 0.590717 38.6637 4.81085 52.9086 6.13887Z" fill="#EBF5F8"/>
    <path d="M27.4958 64.7432C26.5272 63.5408 27.2352 63.3338 26.5138 64.8769C25.946 66.0793 25.2981 67.2416 24.6568 68.404C23.107 71.2296 25.763 66.6922 24.1465 69.4778C21.6748 73.733 20.4297 75.8105 18.7196 80.4531C18.1117 82.1098 20.5299 83.4725 21.6788 82.1766C28.713 74.1738 31.2767 77.3686 39.7738 71.0225C41.5774 69.6732 39.8205 66.6003 37.9902 67.9697C29.2526 74.4895 26.4083 71.455 19.1805 79.6782C20.1691 80.2527 21.1512 80.8272 22.1398 81.4017C24.3576 75.3829 26.8532 73.0783 28.2987 69.765C29.588 67.5205 32.2186 64.9971 30.0075 62.2516C28.5779 60.4747 26.0929 62.9931 27.5091 64.7499L27.4958 64.7432Z" fill="#2568CB"/>
    <path d="M39.5178 70.8284C49.5112 71.6367 74.9689 85.6114 80.9609 70.6547C84.5949 61.5899 88.1755 48.0226 86.2717 38.1962C84.8889 31.0552 73.0918 29.9196 67.7611 28.2829C55.8438 24.6356 31.515 13.4933 23.7795 29.0378C21.4815 33.6538 21.4882 39.9263 20.8069 44.9097C20.2391 49.0981 17.547 53.2598 17.6004 57.4816C17.6806 64.1617 23.9064 66.7669 29.9652 65.5979C32.2031 65.1637 31.2545 61.7569 29.0233 62.1844C17.6071 64.3888 23.2785 50.8683 24.2137 45.8449C25.7568 37.595 24.4408 26.1453 35.4897 24.8828C46.3248 23.647 58.1953 29.0445 68.369 32.1574C70.3263 32.7586 72.3103 33.2663 74.2876 33.794C82.2836 35.9317 83.4393 41.3959 82.3704 49.1782C81.3751 56.4462 80.5936 70.9019 72.2569 73.3468C62.0363 76.3395 49.7517 68.1029 39.5111 67.2746C37.2332 67.0876 37.2532 70.628 39.5111 70.815L39.5178 70.8284Z" fill="#2568CB"/>
    <path d="M42.9177 42.959C41.4948 41.6563 39.3439 41.4359 37.6805 42.4112C35.7834 43.5268 35.7766 46.2188 37.0258 47.7886C39.1033 50.4072 44.7881 50.5208 46.8656 47.8421C47.4668 47.0605 47.5938 46.1053 46.8656 45.3438C45.5563 43.961 43.1915 42.5248 41.3745 43.8942C39.5776 45.2502 41.3345 48.3231 43.1581 46.947C43.0179 46.8602 43.0513 46.8602 43.2517 46.947C43.7059 47.1407 44.0333 47.5014 44.3673 47.8488V45.3504C43.559 46.3992 41.8556 46.3324 40.6932 46.0452C40.4194 45.9784 39.7113 45.778 39.6845 45.4373C39.6578 45.0632 39.3906 45.4573 39.8181 45.3438C39.9918 45.297 40.2924 45.3571 40.426 45.4774C42.1027 47.0138 44.6144 44.5221 42.9244 42.979L42.9177 42.959Z" fill="#2568CB"/>
    <path d="M56.7452 46.5935C55.5695 46.1125 54.2802 46.1727 53.325 47.0745C52.3029 48.0431 52.5501 49.653 53.2314 50.7218C54.2268 52.2849 57.0592 53.9616 58.8561 52.659C60.3124 51.5969 60.3257 49.6263 59.3104 48.2368C57.9677 46.3797 55.8501 45.9121 53.679 46.206C52.8774 46.3129 52.4299 47.2014 52.3831 47.9095C52.3364 48.5575 52.5635 48.9583 52.7772 49.5394C53.1112 50.4412 53.9663 51.0491 54.9549 50.7752C55.8234 50.5347 56.5248 49.506 56.1907 48.5975C56.1039 48.357 56.0103 48.1165 55.9035 47.8827C55.7498 47.5888 55.7565 47.5955 55.9168 47.9095C55.4826 48.4773 55.0485 49.0451 54.6209 49.6129C54.4673 49.6329 55.1019 49.6129 55.0284 49.6129C55.162 49.6129 55.2956 49.6262 55.4292 49.6396C55.2756 49.6262 55.3023 49.6396 55.5161 49.6797C55.5428 49.6797 56.0705 49.8801 55.7432 49.7331C55.8166 49.7665 56.3578 50.1139 56.0438 49.8734C56.1574 49.9603 56.2575 50.0671 56.3577 50.1673C56.5648 50.3811 56.2309 49.9402 56.4713 50.3477C56.6317 50.6216 56.3845 50.007 56.5114 50.4746C56.5982 50.7819 56.5114 50.0404 56.4913 50.5147C56.5114 50.1206 56.7786 49.7064 57.166 49.5862C57.5802 49.4592 57.4065 49.5661 57.1928 49.5528C57.8006 49.5862 56.8855 49.3991 57.1928 49.5327C56.7786 49.3524 56.3978 49.1253 56.1506 48.7445C56.4112 49.152 55.6162 49.7264 55.4158 49.8066C55.1086 49.9268 55.6363 49.9536 55.79 50.0137C56.6851 50.3811 57.7339 49.6263 57.9677 48.7779C58.2482 47.7625 57.6202 46.9676 56.7318 46.6002L56.7452 46.5935Z" fill="#2568CB"/>
    <path d="M70.3872 50.5676C69.6323 49.0646 67.5949 48.4099 66.319 49.7259C64.9229 51.1621 65.3237 53.0726 66.466 54.5088C67.8154 56.2122 70.8748 57.3211 72.5649 55.5175C73.7005 54.3017 73.8408 52.1107 72.8254 50.7747C71.1888 48.617 68.7105 49.3718 66.9336 50.9016C65.2034 52.3912 67.7151 54.8829 69.4319 53.3999C69.5855 53.2663 69.6657 53.1995 69.953 53.0258C70.4005 52.7586 69.8528 53.0058 70.2937 52.8922C70.4941 52.8522 70.4473 52.8588 70.1601 52.9056C70.3204 52.8922 70.6077 52.9858 70.0866 52.8789C70.267 52.9323 70.2135 52.9056 69.9262 52.7921C70.0531 52.8455 70.2803 53.0526 69.8661 52.7119C70.2135 52.9925 69.6924 52.3846 69.9262 52.772C70.0064 52.9323 69.993 52.8789 69.8661 52.5983C69.9062 52.6852 69.9263 52.7787 69.953 52.8722C70.0799 53.3398 69.953 52.4847 69.9597 52.9724C69.9597 53.0392 69.9597 53.0993 69.9597 53.1661C69.9396 53.5269 70.0398 52.7186 69.9597 53.0659C69.8595 53.5202 70.16 52.752 69.9329 53.1461C69.8327 53.2997 69.8728 53.2463 70.0532 52.9991C69.9597 53.1127 69.7192 53.2463 70.1467 52.9524C69.9864 53.0392 70.0532 53.0192 70.3338 52.8922C70.2002 52.9457 69.8995 52.959 70.4272 52.9056C69.973 52.9524 70.7145 53.0192 70.2135 52.8789C70.0331 52.8121 70.0398 52.8254 70.2403 52.9056C70.0866 52.8388 69.9463 52.7586 69.806 52.6718C69.5522 52.5248 69.3718 52.3779 69.1781 52.2109C68.9042 51.9771 68.9644 51.7767 68.9176 51.9971C68.8708 52.1708 68.7573 52.3044 68.5769 52.3912C68.303 52.4246 68.0291 52.4514 67.7619 52.4848C67.2408 52.0038 67.0939 51.9504 67.3277 52.3311C68.3565 54.3686 71.4026 52.5783 70.3805 50.5475L70.3872 50.5676Z" fill="#2568CB"/>
</svg>