<?xml version="1.0" encoding="UTF-8"?>
<svg viewBox="0 0 104 104" fill="none" version="1.1" xmlns="http://www.w3.org/2000/svg" xmlns:xlink="http://www.w3.org/1999/xlink">
    <path fill-rule="evenodd" clip-rule="evenodd" d="M55.6754 4.38609C68.6193 3.2351 83.3052 4.18186 91.9548 13.88C100.388 23.3355 96.4004 37.4898 96.4997 50.1593C96.6004 63.0032 100.688 77.0925 92.5282 87.0121C83.9419 97.4507 69.1427 100.94 55.6754 99.7906C43.181 98.7243 33.4889 90.0798 24.6181 81.2166C15.7419 72.3481 5.85789 62.7059 6.00155 50.1593C6.1443 37.692 16.1523 28.2541 25.3212 19.8051C33.9971 11.8105 43.9241 5.43104 55.6754 4.38609Z" fill="#FDEDF0"/>
    <path d="M59.3794 28.6106C60.166 28.941 60.9526 29.2661 61.734 29.5965C62.421 29.8849 63.2549 29.2871 63.4332 28.6316C63.6534 27.8345 63.1604 27.2209 62.4682 26.9324C61.6816 26.6021 60.8949 26.2769 60.1135 25.9465C59.4265 25.6581 58.5927 26.2559 58.4144 26.9115C58.1942 27.7086 58.6871 28.3221 59.3794 28.6106Z" fill="#ED7F9C"/>
    <path d="M57.0444 27.0628C49.844 41.904 43.3569 57.0389 37.5567 72.4779C36.9327 74.1456 39.602 74.8641 40.2208 73.2122C45.9371 57.9986 52.335 43.0787 59.4305 28.4577C60.2014 26.8635 57.8205 25.4633 57.0444 27.0628Z" fill="#ED7F9C"/>
    <path d="M38.806 74.5708C39.8654 74.5603 40.8303 74.8016 41.7585 75.3208C43.3108 76.1913 44.7058 73.8052 43.1535 72.9346C41.811 72.1847 40.3478 71.7914 38.806 71.8071C37.0282 71.8281 37.023 74.5918 38.806 74.5708Z" fill="#ED7F9C"/>
    <path d="M60.9052 28.3108C53.9618 43.2883 47.202 58.3498 40.6205 73.4952C39.9177 75.1104 42.2986 76.5158 43.0066 74.8901C49.5829 59.7447 56.3427 44.6833 63.2913 29.7057C64.036 28.101 61.6551 26.7008 60.9052 28.3108Z" fill="#ED7F9C"/>
    <path d="M63.4963 30.5918C77.7396 18.9339 87.5412 41.5523 102.55 40.236C104.307 40.0839 104.323 37.3202 102.55 37.4723C91.1073 38.4792 87.0954 28.0956 77.6872 24.9438C71.8084 22.9772 66.1709 24.8441 61.5454 28.6357C60.1714 29.7633 62.1328 31.7089 63.4963 30.5866V30.5918Z" fill="#ED7F9C"/>
    <path d="M43.6408 76.6107C52.6189 72.515 61.1146 85.3948 68.8184 88.7249C73.6693 90.8226 78.2108 90.7544 82.9254 88.447C84.5196 87.6656 83.1247 85.2795 81.5304 86.0609C65.525 93.901 57.6167 67.213 42.2458 74.2246C40.6305 74.964 42.0308 77.3449 43.6408 76.6107Z" fill="#ED7F9C"/>
    <path d="M101.464 39.109C93.7816 55.083 86.6547 71.3035 80.0574 87.7547C79.3967 89.4066 82.0659 90.1198 82.7215 88.4889C89.2296 72.2579 96.2726 56.263 103.851 40.504C104.616 38.9098 102.235 37.5043 101.464 39.109Z" fill="#ED7F9C"/>
    <path d="M59.4269 26.8636C58.7766 20.5076 55.0532 16.2912 49.3579 13.5432C46.0278 11.9332 42.4618 10.8581 38.8222 10.2603C34.8576 9.60476 29.8284 10.512 26.5245 7.99477C25.1138 6.91446 23.7345 9.31635 25.1295 10.3809C28.6484 13.066 33.0273 12.2741 37.207 12.8405C45.2622 13.926 55.7035 17.4659 56.6684 26.8741C56.8467 28.6256 59.6104 28.6466 59.4321 26.8741L59.4269 26.8636Z" fill="#ED7F9C"/>
    <path d="M24.9041 9.05478C18.3016 27.5722 10.2045 45.4131 0.570839 62.5513C-0.299706 64.1036 2.08642 65.4986 2.95697 63.9463C12.7008 46.6036 20.887 28.5267 27.5682 9.78898C28.1661 8.11083 25.4967 7.38711 24.9041 9.05478Z" fill="#ED7F9C"/>
    <path d="M1.67653 65.4295C12.1073 61.5802 17.9809 66.7615 26.3874 71.6282C30.6615 74.1034 34.322 75.2047 39.2044 74.502C40.9559 74.2503 40.2113 71.5862 38.4702 71.8379C29.3504 73.1438 24.2845 65.4085 16.7642 62.4926C11.4256 60.4212 6.22331 60.8145 0.937104 62.7654C-0.714834 63.3737 -0.00163518 66.0483 1.67128 65.4295H1.67653Z" fill="#ED7F9C"/>
    <path d="M37.0237 72.661C35.5029 73.8777 35.6025 76.3267 36.6776 77.7899C38.1827 79.8299 40.915 79.4995 42.9078 78.4559C44.481 77.6273 43.0861 75.2464 41.5128 76.0698C40.8363 76.4211 39.5987 76.9141 38.9484 76.2481C38.5078 75.7971 38.5078 74.9894 38.9746 74.6171C39.5567 74.1503 39.4623 73.1487 38.9746 72.661C38.3977 72.0841 37.6058 72.1943 37.0237 72.661Z" fill="#ED7F9C"/>
    <path d="M78.3887 88.4678C77.8328 90.1774 77.2769 91.8923 76.721 93.6019C76.1703 95.2958 78.8344 96.0247 79.385 94.3361C79.9409 92.6265 80.4968 90.9116 81.0527 89.202C81.6034 87.5081 78.9393 86.7791 78.3887 88.4678Z" fill="#ED7F9C"/>
    <path d="M42.1456 79.5684C53.641 85.6046 65.3199 91.2421 77.1982 96.4864C78.8081 97.1996 80.2188 94.8187 78.5931 94.1002C66.7149 88.856 55.036 83.2184 43.5406 77.1823C41.9673 76.3589 40.5723 78.7398 42.1456 79.5684Z" fill="#ED7F9C"/>
    <path d="M4.71213 62.5036C3.64755 64.7376 2.57774 66.9664 1.51316 69.2005C0.75274 70.7947 3.13362 72.2002 3.89928 70.5955C4.96386 68.3614 6.03371 66.1326 7.09829 63.8986C7.85871 62.3043 5.47779 60.8988 4.71213 62.5036Z" fill="#ED7F9C"/>
    <path d="M3.01882 71.8746C14.4041 72.9601 24.9135 78.2673 36.5138 76.3532C38.2654 76.0648 37.5207 73.4007 35.7796 73.6891C24.5989 75.5351 14.016 70.1597 3.01882 69.1109C1.25151 68.943 1.262 71.7068 3.01882 71.8746Z" fill="#ED7F9C"/>
    <path d="M68.6563 40.7029C70.4131 39.3604 73.6698 38.8412 75.8252 39.4862C78.1694 40.1837 79.1396 42.3653 80.6971 43.9438C82.627 45.8999 84.9082 47.0799 87.588 47.6253C89.3239 47.9819 90.0633 45.3178 88.3223 44.9612C85.3435 44.3529 83.3874 42.8635 81.4523 40.5718C80.3772 39.2974 79.3493 38.0178 77.8128 37.2941C74.7711 35.8572 69.9254 36.282 67.2613 38.3167C65.8664 39.3813 67.2404 41.7832 68.6563 40.7029Z" fill="#ED7F9C"/>
    <path d="M65.316 50.3633C69.8366 47.4685 72.123 53.2948 74.9025 55.4712C76.974 57.0916 79.7797 57.1126 82.2812 57.4902C84.0222 57.7524 84.7722 55.0936 83.0154 54.8261C80.4562 54.4381 77.8026 54.459 75.8412 52.5239C74.5983 51.2967 73.6806 49.8284 72.2961 48.7271C69.7317 46.6871 66.7267 46.1731 63.9158 47.9771C62.4212 48.9316 63.8057 51.323 65.3108 50.3633H65.316Z" fill="#ED7F9C"/>
    <path d="M61.0459 62.3721C62.2311 61.1082 64.7798 61.7218 66.1747 62.22C68.3458 62.9909 69.2216 64.5537 70.6166 66.1689C72.4626 68.3085 74.7753 68.9693 77.4971 69.3574C79.2382 69.6039 79.9881 66.945 78.2312 66.6933C75.2158 66.2633 73.5744 65.4085 71.6602 63.0328C70.6009 61.7165 69.5048 60.6362 67.9316 59.9492C65.236 58.7693 61.3028 58.0718 59.0897 60.4212C57.8731 61.7165 59.824 63.6726 61.0406 62.3773L61.0459 62.3721Z" fill="#ED7F9C"/>
    <path d="M58.8172 72.0167C61.6019 69.9871 63.8622 73.7735 65.5351 75.5303C67.1346 77.2137 68.9701 78.5405 71.0416 79.5841C72.6253 80.3813 74.0255 78.0004 72.4365 77.198C68.9491 75.4359 67.1818 72.4572 64.2188 70.1393C62.1893 68.5502 59.5986 68.0416 57.4223 69.6253C56.0011 70.6637 57.3751 73.0603 58.8172 72.0114V72.0167Z" fill="#ED7F9C"/>
    <path d="M37.1227 46.6346C36.6559 44.1383 34.9043 42.2766 32.4448 41.6106C30.8296 41.1701 29.1724 41.275 27.5205 41.3903C26.7548 41.448 23.0576 42.2661 22.4965 41.6735C21.2746 40.3782 19.3237 42.3343 20.5456 43.6243C21.8829 45.0403 23.9386 44.4477 25.685 44.3061C28.8577 44.0439 33.6825 43.1891 34.4638 47.3687C34.789 49.1151 37.4531 48.3757 37.1279 46.6346H37.1227Z" fill="#ED7F9C"/>
    <path d="M31.8523 59.0003C30.9607 56.4568 29.3455 54.2594 26.8335 53.1267C23.4458 51.6006 20.1104 53.6144 16.7121 52.66C14.9973 52.1775 14.2683 54.8416 15.9779 55.324C18.4637 56.0215 20.5614 55.2401 23.0524 55.1825C26.0469 55.1143 28.2233 56.9864 29.1882 59.7344C29.7756 61.4021 32.4449 60.6837 31.8523 59.0003Z" fill="#ED7F9C"/>
    <path d="M30.3314 19.9258C29.0046 24.0215 26.0311 27.3516 25.2812 31.6676C24.9823 33.4087 27.6411 34.1534 27.9453 32.4018C28.6847 28.1278 31.674 24.7452 32.9955 20.66C33.5462 18.9661 30.8768 18.2371 30.3314 19.9258Z" fill="#ED7F9C"/>
    <path d="M45.974 23.7851C44.0913 27.9491 42.3974 32.1864 40.9028 36.5024C40.3207 38.1858 42.99 38.9095 43.5669 37.2366C44.9828 33.1461 46.5771 29.1238 48.3601 25.1801C49.0891 23.5753 46.7082 22.1647 45.974 23.7851Z" fill="#ED7F9C"/>
    <path d="M47.0714 23.2293C43.133 20.4289 36.3522 16.6897 31.4541 18.7874C29.8231 19.4849 31.2286 21.8658 32.8491 21.1735C34.7212 20.3712 37.9727 21.656 39.7453 22.3378C41.8849 23.1559 43.82 24.2939 45.6817 25.6154C47.1344 26.6485 48.5136 24.2519 47.0767 23.2293H47.0714Z" fill="#ED7F9C"/>
    <path d="M26.1148 33.7544C28.5796 34.4781 31.1283 34.2421 33.6298 34.777C36.4197 35.3749 38.8793 36.6545 41.1605 38.3431C42.5922 39.4025 43.9715 37.0058 42.5555 35.957C40.3687 34.3418 37.9878 33.0831 35.3552 32.3594C32.56 31.5885 29.6127 31.9032 26.849 31.0903C25.1394 30.5869 24.4104 33.251 26.1148 33.7544Z" fill="#ED7F9C"/>
</svg>