<?xml version="1.0" encoding="UTF-8"?>
<svg viewBox="0 0 104 104" fill="none" version="1.1" xmlns="http://www.w3.org/2000/svg" xmlns:xlink="http://www.w3.org/1999/xlink">
    <path fill-rule="evenodd" clip-rule="evenodd" d="M54.1221 7.01862C66.6189 6.49047 76.0255 17.2978 84.527 26.4725C92.597 35.1813 99.6956 45.021 100.323 56.8774C100.982 69.3364 97.4762 82.6533 87.9247 90.68C78.8588 98.2987 65.9404 96.4503 54.1221 95.7032C43.3578 95.0228 32.8392 93.2997 24.3389 86.6606C14.5525 79.0171 4.01475 69.2887 4.41124 56.8774C4.80315 44.6098 17.5168 37.6301 26.1829 28.9383C34.8713 20.224 41.8275 7.53823 54.1221 7.01862Z" fill="#F1F2FF"/>
    <path d="M41.9822 27.856C36.4533 28.7724 26.119 31.552 23.641 37.521C20.9821 43.9422 31.9373 42.2721 34.8314 41.8681C39.6428 41.1868 44.3698 39.8543 48.8074 37.8647C51.3879 36.707 55.2105 34.9103 55.8556 31.763C57.3268 24.5519 44.6471 27.1988 41.325 27.9283C39.3293 28.3624 40.1734 31.4253 42.1691 30.9912C44.5627 30.4727 48.3974 29.4477 50.9418 30.0868C54.3664 30.949 51.2312 33.0713 49.2777 34.1325C44.3999 36.7794 38.5696 38.2988 33.0829 38.9198C31.9795 39.0464 27.6264 39.9689 27.0656 38.9077C26.5049 37.8526 28.8563 36.4357 29.9235 35.7182C33.7763 33.1316 38.2802 31.6725 42.8263 30.9189C44.8401 30.5873 43.9839 27.5244 41.9822 27.856Z" fill="#8D8BFA"/>
    <path d="M24.8176 41.868C28.0011 44.2134 33.126 48.241 34.356 52.0877C36.1889 57.8035 33.2647 59.5158 30.9675 63.3324C27.4766 69.1386 25.6255 76.0603 26.4636 82.8373C28.399 98.4532 43.207 105.073 57.587 103.186C71.5448 101.353 86.6664 91.5014 83.8628 75.5538C82.6328 68.5478 78.2615 62.6752 72.805 58.3039C69.9229 55.9947 66.7335 54.3789 63.5982 52.4736C56.0435 47.8793 54.1503 40.5235 56.2304 32.0101C56.7127 30.0264 53.6558 29.1763 53.1675 31.166C51.7807 36.8456 51.8712 42.5433 54.4577 47.9154C57.1589 53.5287 60.3122 54.0111 65.4673 57.1041C74.9574 62.7958 84.1883 73.1421 79.8955 85.0138C75.8618 96.1801 62.0728 100.702 51.1175 100.389C37.2863 99.9907 27.356 89.0475 29.8159 75.0474C30.9735 68.4453 34.9409 64.9422 37.7083 59.4314C41.6575 51.5752 32.0226 43.2487 26.4154 39.1186C24.7694 37.9067 23.1837 40.6621 24.8116 41.862L24.8176 41.868Z" fill="#8D8BFA"/>
    <path d="M35.4235 75.9583C45.9688 73.1366 58.552 71.5991 67.8914 65.7145C69.6158 64.6292 68.0241 61.8798 66.2876 62.9711C57.3039 68.6327 44.7328 70.1762 34.5734 72.8954C32.6018 73.426 33.4399 76.4889 35.4175 75.9583H35.4235Z" fill="#8D8BFA"/>
    <path d="M33.6488 75.4584C31.6531 83.1036 34.4869 88.8314 40.3716 93.6911C47.5706 99.636 52.7799 99.4069 61.4681 96.3259C68.432 93.8539 75.4682 91.008 77.2167 83.0614C78.9411 75.2172 74.4312 68.2051 69.4208 62.6823C68.0461 61.1629 65.8032 63.4178 67.1719 64.9252C70.681 68.796 73.6233 72.8899 74.1599 78.1897C75.0944 87.4266 67.8412 90.6824 60.6241 93.2569C54.2028 95.5481 48.4207 96.1691 42.6205 91.4361C37.7669 87.4749 35.0597 82.6273 36.7178 76.2905C37.2363 74.3128 34.1734 73.4687 33.6549 75.4463L33.6488 75.4584Z" fill="#8D8BFA"/>
    <path d="M38.8719 15.7197C37.1837 17.6009 38.1845 20.5854 40.5721 21.2908C42.9537 21.9902 46.1734 20.4467 47.0657 18.1254C47.8736 16.0332 46.7582 13.4105 44.6058 12.6629C42.3086 11.861 39.8365 13.308 39.1492 15.563C38.5463 17.5225 41.6152 18.3606 42.2121 16.4071C42.5739 15.2193 44.3585 15.4846 44.1656 16.7929C44.0571 17.5346 43.0381 18.0048 42.399 18.1857C42.1397 18.2581 41.6333 18.3967 41.374 18.2339C41.2534 18.1556 41.2414 18.047 41.1751 17.9325C41.0545 17.7154 41.2112 17.8662 41.1148 17.9747C42.4774 16.4553 40.2345 14.2003 38.8719 15.7258V15.7197Z" fill="#8D8BFA"/>
    <path d="M19.8608 18.6012C22.1399 20.9285 26.5956 19.9759 27.5362 16.7804C28.0969 14.8751 27.0659 12.9155 25.1003 12.4694C23.0262 11.9991 21.3501 13.2773 19.9814 14.6761C18.5525 16.1412 20.7954 18.3841 22.2243 16.919C22.6886 16.4427 23.394 15.5504 24.1417 15.5383C24.2924 15.5383 24.4914 15.5504 24.5939 15.683C24.4974 15.5504 24.4612 15.9965 24.3527 16.1593C23.8763 16.8648 22.6826 16.9552 22.1037 16.3583C20.6748 14.8932 18.4258 17.1421 19.8608 18.6012Z" fill="#8D8BFA"/>
    <path d="M29.7542 3.93813C30.6948 5.52987 33.4743 6.07855 34.5355 4.25166C35.6931 2.27404 32.8955 0.121578 31.159 1.36965C30.4596 1.87008 30.128 2.75638 30.5863 3.54019C30.9902 4.22753 32.0574 4.61341 32.7568 4.10695C32.1418 4.27577 31.7439 4.05871 31.575 3.44975C31.7318 3.07593 31.8826 2.70213 32.0393 2.32831C32.1599 2.21978 32.389 2.1655 32.4915 2.33432C31.4484 0.579791 28.7051 2.17153 29.7482 3.93813H29.7542Z" fill="#8D8BFA"/>
</svg>