<?xml version="1.0" encoding="UTF-8"?>
<svg class="submenu-link-icon" viewBox="0 0 25 24" fill="none" version="1.1" xmlns="http://www.w3.org/2000/svg" xmlns:xlink="http://www.w3.org/1999/xlink">
    <path d="M10.25 3.18733H5.75C5.4019 3.18733 5.06806 3.32561 4.82192 3.57175C4.57578 3.8179 4.4375 4.15174 4.4375 4.49983V19.4998C4.4375 19.8479 4.57578 20.1818 4.82192 20.4279C5.06806 20.6741 5.4019 20.8123 5.75 20.8123H10.25C10.4224 20.8123 10.593 20.7784 10.7523 20.7124C10.9115 20.6465 11.0562 20.5498 11.1781 20.4279C11.3 20.306 11.3966 20.1613 11.4626 20.0021C11.5286 19.8429 11.5625 19.6722 11.5625 19.4998V4.49983C11.5625 4.32747 11.5286 4.1568 11.4626 3.99756C11.3966 3.83832 11.3 3.69363 11.1781 3.57175C11.0562 3.44988 10.9115 3.3532 10.7523 3.28724C10.593 3.22128 10.4224 3.18733 10.25 3.18733ZM5.5625 7.31233H10.4375V16.6873H5.5625V7.31233ZM5.75 4.31233H10.25C10.2997 4.31233 10.3474 4.33209 10.3826 4.36725C10.4177 4.40241 10.4375 4.4501 10.4375 4.49983V6.18733H5.5625V4.49983C5.5625 4.4501 5.58225 4.40241 5.61742 4.36725C5.65258 4.33209 5.70027 4.31233 5.75 4.31233ZM10.25 19.6873H5.75C5.70027 19.6873 5.65258 19.6676 5.61742 19.6324C5.58225 19.5973 5.5625 19.5496 5.5625 19.4998V17.8123H10.4375V19.4998C10.4375 19.5496 10.4177 19.5973 10.3826 19.6324C10.3474 19.6676 10.2997 19.6873 10.25 19.6873ZM22.0344 18.2811L18.9228 3.48358C18.8877 3.31418 18.8194 3.15339 18.722 3.01047C18.6245 2.86754 18.4997 2.7453 18.3548 2.65077C18.2099 2.55624 18.0478 2.49128 17.8777 2.45964C17.7076 2.428 17.5329 2.43029 17.3638 2.46639L12.9753 3.40952C12.6357 3.48417 12.3392 3.68974 12.1502 3.98161C11.9611 4.27349 11.8948 4.62813 11.9656 4.96858L15.0772 19.7633C15.1126 19.9333 15.1814 20.0945 15.2795 20.2378C15.3777 20.381 15.5033 20.5033 15.6491 20.5976C15.86 20.7357 16.1066 20.8093 16.3588 20.8095C16.4533 20.81 16.5477 20.8 16.64 20.7795L21.0284 19.8373C21.3668 19.7618 21.6619 19.5563 21.8501 19.2652C22.0383 18.974 22.1045 18.6206 22.0344 18.2811ZM14.2709 10.4698L19.0269 9.44796L20.3506 15.7442L15.5938 16.7633L14.2709 10.4698ZM13.6494 7.51108L18.4062 6.48639L18.7953 8.34358L14.0394 9.36546L13.6494 7.51108ZM13.2125 4.51108L17.6 3.56889C17.6131 3.56763 17.6263 3.56763 17.6394 3.56889C17.6744 3.56894 17.7087 3.57938 17.7378 3.59889C17.7593 3.61261 17.7779 3.63057 17.7922 3.65169C17.8066 3.67281 17.8164 3.69663 17.8212 3.72171L18.1728 5.39233L13.4178 6.40671L13.0672 4.73983C13.0562 4.69001 13.0653 4.63787 13.0925 4.59471C13.1197 4.55155 13.1628 4.52083 13.2125 4.50921V4.51108ZM20.7884 18.7423L16.4 19.6873C16.3765 19.6925 16.3522 19.693 16.3285 19.6886C16.3049 19.6843 16.2823 19.6752 16.2622 19.662C16.2407 19.6483 16.2221 19.6303 16.2078 19.6092C16.1934 19.5881 16.1836 19.5643 16.1788 19.5392L15.8272 17.8686L20.5822 16.8467L20.9375 18.5089C20.943 18.5339 20.9435 18.5597 20.939 18.5849C20.9345 18.6101 20.925 18.6342 20.9112 18.6557C20.8973 18.6772 20.8793 18.6958 20.8583 18.7103C20.8372 18.7249 20.8135 18.7351 20.7884 18.7405V18.7423Z" fill="#253F84"/>
</svg>