<?xml version="1.0" encoding="UTF-8"?>
<svg class="submenu-link-icon" viewBox="0 0 25 24" fill="none" version="1.1" xmlns="http://www.w3.org/2000/svg" xmlns:xlink="http://www.w3.org/1999/xlink">
    <path d="M20 2.4375H7.25C6.50408 2.4375 5.78871 2.73382 5.26126 3.26126C4.73382 3.78871 4.4375 4.50408 4.4375 5.25V21C4.4375 21.1492 4.49676 21.2923 4.60225 21.3977C4.70774 21.5032 4.85082 21.5625 5 21.5625H18.5C18.6492 21.5625 18.7923 21.5032 18.8977 21.3977C19.0032 21.2923 19.0625 21.1492 19.0625 21C19.0625 20.8508 19.0032 20.7077 18.8977 20.6023C18.7923 20.4968 18.6492 20.4375 18.5 20.4375H5.5625V20.25C5.5625 19.8024 5.74029 19.3732 6.05676 19.0568C6.37323 18.7403 6.80245 18.5625 7.25 18.5625H20C20.1492 18.5625 20.2923 18.5032 20.3977 18.3977C20.5032 18.2923 20.5625 18.1492 20.5625 18V3C20.5625 2.85082 20.5032 2.70774 20.3977 2.60225C20.2923 2.49676 20.1492 2.4375 20 2.4375ZM11.5625 3.5625H16.4375V10.875L14.3366 9.3C14.2392 9.22697 14.1208 9.1875 13.9991 9.1875C13.8774 9.1875 13.7589 9.22697 13.6616 9.3L11.5625 10.875V3.5625ZM19.4375 17.4375H7.25C6.64132 17.4366 6.04892 17.6341 5.5625 18V5.25C5.5625 4.80245 5.74029 4.37323 6.05676 4.05676C6.37323 3.74029 6.80245 3.5625 7.25 3.5625H10.4375V12C10.4375 12.1045 10.4666 12.2069 10.5215 12.2957C10.5764 12.3846 10.655 12.4564 10.7484 12.5031C10.8419 12.5498 10.9465 12.5696 11.0505 12.5602C11.1546 12.5508 11.2539 12.5127 11.3375 12.45L14 10.4531L16.6634 12.45C16.747 12.5124 16.8463 12.5504 16.9502 12.5596C17.0541 12.5688 17.1585 12.549 17.2518 12.5023C17.345 12.4556 17.4235 12.3839 17.4784 12.2952C17.5332 12.2065 17.5624 12.1043 17.5625 12V3.5625H19.4375V17.4375Z" fill="#253F84"/>
</svg>