<?xml version="1.0" encoding="UTF-8"?>
<svg class="submenu-link-icon" viewBox="0 0 25 24" fill="none" version="1.1" xmlns="http://www.w3.org/2000/svg" xmlns:xlink="http://www.w3.org/1999/xlink">
    <path d="M23.5624 11.6246C23.5612 10.6467 23.2774 9.68989 22.7451 8.86943C22.2129 8.04897 21.4549 7.39977 20.5624 6.99995V6.74963C20.5615 5.79804 20.2458 4.87348 19.6646 4.12C19.0834 3.36651 18.2693 2.82642 17.3492 2.58386C16.429 2.3413 15.4545 2.4099 14.5774 2.77897C13.7003 3.14804 12.9698 3.79685 12.4999 4.62432C12.03 3.79685 11.2996 3.14804 10.4225 2.77897C9.5454 2.4099 8.57085 2.3413 7.65069 2.58386C6.73053 2.82642 5.91643 3.36651 5.33523 4.12C4.75404 4.87348 4.43838 5.79804 4.43743 6.74963V6.99995C3.54423 7.39843 2.78558 8.04711 2.2532 8.86758C1.72082 9.68805 1.4375 10.6452 1.4375 11.6232C1.4375 12.6013 1.72082 13.5584 2.2532 14.3789C2.78558 15.1993 3.54423 15.848 4.43743 16.2465V16.4996C4.43838 17.4512 4.75404 18.3758 5.33523 19.1293C5.91643 19.8828 6.73053 20.4229 7.65069 20.6654C8.57085 20.908 9.5454 20.8394 10.4225 20.4703C11.2996 20.1012 12.03 19.4524 12.4999 18.6249C12.9698 19.4524 13.7003 20.1012 14.5774 20.4703C15.4545 20.8394 16.429 20.908 17.3492 20.6654C18.2693 20.4229 19.0834 19.8828 19.6646 19.1293C20.2458 18.3758 20.5615 17.4512 20.5624 16.4996V16.2465C21.4549 15.8475 22.213 15.1988 22.7453 14.3788C23.2776 13.5587 23.5613 12.6023 23.5624 11.6246ZM8.74993 19.6871C7.9215 19.6875 7.12545 19.3654 6.53045 18.7889C5.93546 18.2125 5.58826 17.427 5.56243 16.599C5.87149 16.6576 6.18537 16.6871 6.49994 16.6871H7.24994C7.39912 16.6871 7.54219 16.6279 7.64768 16.5224C7.75317 16.4169 7.81243 16.2738 7.81243 16.1246C7.81243 15.9755 7.75317 15.8324 7.64768 15.7269C7.54219 15.6214 7.39912 15.5621 7.24994 15.5621H6.49994C5.57053 15.5629 4.67082 15.2349 3.96 14.6361C3.24917 14.0373 2.77307 13.2064 2.61593 12.2904C2.45879 11.3744 2.63074 10.4323 3.10135 9.63083C3.57197 8.82938 4.31092 8.22024 5.18743 7.9112C5.29715 7.87241 5.39214 7.80054 5.4593 7.70551C5.52646 7.61047 5.5625 7.49694 5.56243 7.38057V6.74963C5.56243 5.90426 5.89826 5.0935 6.49603 4.49573C7.0938 3.89796 7.90456 3.56213 8.74993 3.56213C9.59531 3.56213 10.4061 3.89796 11.0038 4.49573C11.6016 5.0935 11.9374 5.90426 11.9374 6.74963V13.5981C11.534 13.1535 11.0419 12.7983 10.493 12.5553C9.94402 12.3123 9.35028 12.1869 8.74993 12.1871C8.60075 12.1871 8.45768 12.2464 8.35219 12.3519C8.2467 12.4574 8.18743 12.6004 8.18743 12.7496C8.18743 12.8988 8.2467 13.0419 8.35219 13.1474C8.45768 13.2529 8.60075 13.3121 8.74993 13.3121C9.59531 13.3121 10.4061 13.648 11.0038 14.2457C11.6016 14.8435 11.9374 15.6543 11.9374 16.4996C11.9374 17.345 11.6016 18.1558 11.0038 18.7535C10.4061 19.3513 9.59531 19.6871 8.74993 19.6871ZM18.4999 15.5621H17.7499C17.6008 15.5621 17.4577 15.6214 17.3522 15.7269C17.2467 15.8324 17.1874 15.9755 17.1874 16.1246C17.1874 16.2738 17.2467 16.4169 17.3522 16.5224C17.4577 16.6279 17.6008 16.6871 17.7499 16.6871H18.4999C18.8145 16.6871 19.1284 16.6576 19.4374 16.599C19.4179 17.2248 19.2145 17.8311 18.8526 18.342C18.4907 18.8529 17.9863 19.246 17.4025 19.4721C16.8186 19.6982 16.181 19.7473 15.5694 19.6133C14.9578 19.4793 14.3992 19.1682 13.9633 18.7187C13.5274 18.2692 13.2335 17.7013 13.1184 17.0858C13.0032 16.4704 13.0719 15.8347 13.3158 15.258C13.5597 14.6813 13.968 14.1892 14.4898 13.8432C15.0116 13.4971 15.6238 13.3124 16.2499 13.3121C16.3991 13.3121 16.5422 13.2529 16.6477 13.1474C16.7532 13.0419 16.8124 12.8988 16.8124 12.7496C16.8124 12.6004 16.7532 12.4574 16.6477 12.3519C16.5422 12.2464 16.3991 12.1871 16.2499 12.1871C15.6496 12.1869 15.0558 12.3123 14.5069 12.5553C13.9579 12.7983 13.4659 13.1535 13.0624 13.5981V6.74963C13.0624 5.90426 13.3983 5.0935 13.996 4.49573C14.5938 3.89796 15.4046 3.56213 16.2499 3.56213C17.0953 3.56213 17.9061 3.89796 18.5038 4.49573C19.1016 5.0935 19.4374 5.90426 19.4374 6.74963V7.38057C19.4374 7.49694 19.4734 7.61047 19.5406 7.70551C19.6077 7.80054 19.7027 7.87241 19.8124 7.9112C20.689 8.22024 21.4279 8.82938 21.8985 9.63083C22.3691 10.4323 22.5411 11.3744 22.3839 12.2904C22.2268 13.2064 21.7507 14.0373 21.0399 14.6361C20.3291 15.2349 19.4293 15.5629 18.4999 15.5621ZM19.8124 10.4996C19.8124 10.6488 19.7532 10.7919 19.6477 10.8974C19.5422 11.0029 19.3991 11.0621 19.2499 11.0621H18.8749C18.0296 11.0621 17.2188 10.7263 16.621 10.1285C16.0233 9.53076 15.6874 8.72001 15.6874 7.87463V7.49963C15.6874 7.35045 15.7467 7.20738 15.8522 7.10189C15.9577 6.9964 16.1008 6.93713 16.2499 6.93713C16.3991 6.93713 16.5422 6.9964 16.6477 7.10189C16.7532 7.20738 16.8124 7.35045 16.8124 7.49963V7.87463C16.8124 8.42164 17.0297 8.94625 17.4165 9.33304C17.8033 9.71984 18.3279 9.93713 18.8749 9.93713H19.2499C19.3991 9.93713 19.5422 9.9964 19.6477 10.1019C19.7532 10.2074 19.8124 10.3504 19.8124 10.4996ZM6.12494 11.0621H5.74993C5.60075 11.0621 5.45768 11.0029 5.35219 10.8974C5.2467 10.7919 5.18743 10.6488 5.18743 10.4996C5.18743 10.3504 5.2467 10.2074 5.35219 10.1019C5.45768 9.9964 5.60075 9.93713 5.74993 9.93713H6.12494C6.67194 9.93713 7.19655 9.71984 7.58334 9.33304C7.97014 8.94625 8.18743 8.42164 8.18743 7.87463V7.49963C8.18743 7.35045 8.2467 7.20738 8.35219 7.10189C8.45768 6.9964 8.60075 6.93713 8.74993 6.93713C8.89912 6.93713 9.04219 6.9964 9.14768 7.10189C9.25317 7.20738 9.31243 7.35045 9.31243 7.49963V7.87463C9.31243 8.72001 8.97661 9.53076 8.37884 10.1285C7.78107 10.7263 6.97031 11.0621 6.12494 11.0621Z" fill="#253F84"/>
</svg>