<?xml version="1.0" encoding="UTF-8"?>
<svg class="submenu-link-icon" viewBox="0 0 25 24" fill="none" version="1.1" xmlns="http://www.w3.org/2000/svg" xmlns:xlink="http://www.w3.org/1999/xlink">
    <path d="M23.5625 12C23.5632 11.1663 23.358 10.3452 22.9651 9.60988C22.5722 8.87452 22.0037 8.24758 21.3102 7.78476C20.6168 7.32194 19.8197 7.03756 18.9899 6.95688C18.16 6.87621 17.3231 7.00173 16.5535 7.32231C15.7838 7.64289 15.1053 8.14859 14.5781 8.7945C14.0509 9.44041 13.6913 10.2065 13.5315 11.0248C13.3716 11.8431 13.4163 12.6882 13.6615 13.485C13.9068 14.2819 14.3451 15.0058 14.9375 15.5925V21C14.9375 21.0959 14.9619 21.1901 15.0086 21.2739C15.0552 21.3576 15.1225 21.4281 15.2041 21.4785C15.2856 21.529 15.3786 21.5577 15.4744 21.5621C15.5702 21.5664 15.6655 21.5463 15.7512 21.5034L18.5 20.1291L21.2488 21.5034C21.3268 21.5423 21.4128 21.5626 21.5 21.5625C21.6044 21.5627 21.7068 21.5334 21.7953 21.4781C21.8769 21.4278 21.9443 21.3575 21.991 21.2738C22.0378 21.1901 22.0624 21.0959 22.0625 21V15.5925C22.5379 15.1228 22.9154 14.5634 23.1729 13.9467C23.4304 13.33 23.5628 12.6683 23.5625 12ZM14.5625 12C14.5625 11.2212 14.7934 10.46 15.2261 9.81244C15.6587 9.16492 16.2737 8.66024 16.9932 8.36222C17.7127 8.0642 18.5044 7.98623 19.2682 8.13816C20.032 8.29009 20.7336 8.6651 21.2842 9.21577C21.8349 9.76644 22.2099 10.468 22.3618 11.2318C22.5138 11.9956 22.4358 12.7873 22.1378 13.5068C21.8398 14.2263 21.3351 14.8413 20.6876 15.2739C20.04 15.7066 19.2788 15.9375 18.5 15.9375C17.4557 15.9375 16.4542 15.5227 15.7158 14.7842C14.9773 14.0458 14.5625 13.0443 14.5625 12ZM20.9375 20.0897L18.7512 18.9966C18.6732 18.9576 18.5872 18.9373 18.5 18.9373C18.4128 18.9373 18.3268 18.9576 18.2488 18.9966L16.0625 20.0897V16.4334C16.8091 16.8448 17.6476 17.0606 18.5 17.0606C19.3524 17.0606 20.1909 16.8448 20.9375 16.4334V20.0897ZM13.0625 18C13.0625 18.1492 13.0032 18.2923 12.8977 18.3977C12.7923 18.5032 12.6492 18.5625 12.5 18.5625H4.25C3.9019 18.5625 3.56806 18.4242 3.32192 18.1781C3.07578 17.9319 2.9375 17.5981 2.9375 17.25V5.25C2.9375 4.9019 3.07578 4.56806 3.32192 4.32192C3.56806 4.07578 3.9019 3.9375 4.25 3.9375H20.75C21.0981 3.9375 21.4319 4.07578 21.6781 4.32192C21.9242 4.56806 22.0625 4.9019 22.0625 5.25C22.0625 5.39918 22.0032 5.54226 21.8977 5.64775C21.7923 5.75324 21.6492 5.8125 21.5 5.8125C21.3508 5.8125 21.2077 5.75324 21.1023 5.64775C20.9968 5.54226 20.9375 5.39918 20.9375 5.25C20.9375 5.20027 20.9177 5.15258 20.8826 5.11742C20.8474 5.08225 20.7997 5.0625 20.75 5.0625H4.25C4.20027 5.0625 4.15258 5.08225 4.11742 5.11742C4.08225 5.15258 4.0625 5.20027 4.0625 5.25V17.25C4.0625 17.2997 4.08225 17.3474 4.11742 17.3826C4.15258 17.4177 4.20027 17.4375 4.25 17.4375H12.5C12.6492 17.4375 12.7923 17.4968 12.8977 17.6023C13.0032 17.7077 13.0625 17.8508 13.0625 18ZM11.5625 12.75C11.5625 12.8992 11.5032 13.0423 11.3977 13.1477C11.2923 13.2532 11.1492 13.3125 11 13.3125H7.25C7.10082 13.3125 6.95774 13.2532 6.85225 13.1477C6.74676 13.0423 6.6875 12.8992 6.6875 12.75C6.6875 12.6008 6.74676 12.4577 6.85225 12.3523C6.95774 12.2468 7.10082 12.1875 7.25 12.1875H11C11.1492 12.1875 11.2923 12.2468 11.3977 12.3523C11.5032 12.4577 11.5625 12.6008 11.5625 12.75ZM11.5625 9.75C11.5625 9.89918 11.5032 10.0423 11.3977 10.1477C11.2923 10.2532 11.1492 10.3125 11 10.3125H7.25C7.10082 10.3125 6.95774 10.2532 6.85225 10.1477C6.74676 10.0423 6.6875 9.89918 6.6875 9.75C6.6875 9.60082 6.74676 9.45774 6.85225 9.35225C6.95774 9.24676 7.10082 9.1875 7.25 9.1875H11C11.1492 9.1875 11.2923 9.24676 11.3977 9.35225C11.5032 9.45774 11.5625 9.60082 11.5625 9.75Z" fill="#253F84"/>
</svg>