<?xml version="1.0" encoding="UTF-8"?>
<svg class="submenu-link-icon" viewBox="0 0 25 24" fill="none" version="1.1" xmlns="http://www.w3.org/2000/svg" xmlns:xlink="http://www.w3.org/1999/xlink">
    <path d="M20.2282 3.86405L8.0173 1.7078C7.67499 1.64841 7.32309 1.72717 7.03875 1.9268C6.75441 2.12644 6.56082 2.43067 6.50042 2.7728L3.71136 18.6166C3.68141 18.7863 3.68521 18.9603 3.72252 19.1287C3.75984 19.297 3.82995 19.4563 3.92885 19.5975C4.02775 19.7387 4.1535 19.859 4.29892 19.9516C4.44434 20.0442 4.60657 20.1073 4.77636 20.1372L16.9873 22.2934C17.0634 22.3073 17.1406 22.3142 17.2179 22.3141C17.5252 22.3116 17.8218 22.2014 18.0562 22.0026C18.2906 21.8039 18.4478 21.5293 18.5004 21.2266L21.2895 5.3828C21.3495 5.04075 21.2715 4.68886 21.0726 4.4042C20.8737 4.11953 20.5701 3.9253 20.2282 3.86405ZM20.1879 5.18968L17.3989 21.0334C17.3947 21.0578 17.3858 21.0811 17.3726 21.102C17.3594 21.123 17.3422 21.1411 17.322 21.1553C17.2813 21.1837 17.2311 21.1948 17.1823 21.1862L4.96761 19.0309C4.94272 19.027 4.91888 19.0181 4.89752 19.0047C4.87615 18.9914 4.8577 18.9738 4.84326 18.9532C4.82882 18.9325 4.81869 18.9092 4.81348 18.8845C4.80827 18.8599 4.80808 18.8344 4.81292 18.8097L7.60199 2.96593C7.60613 2.94155 7.61506 2.91823 7.62825 2.89731C7.64144 2.87639 7.65864 2.85829 7.67886 2.84405C7.72061 2.81494 7.77215 2.80349 7.8223 2.81218L20.0332 4.96843C20.0581 4.97237 20.082 4.98128 20.1033 4.99464C20.1247 5.008 20.1432 5.02553 20.1576 5.04618C20.172 5.06684 20.1822 5.09019 20.1874 5.11484C20.1926 5.1395 20.1928 5.16495 20.1879 5.18968ZM17.9482 7.07874C17.9261 7.20955 17.8585 7.32834 17.7573 7.41412C17.6561 7.49989 17.5278 7.54713 17.3951 7.54749C17.3621 7.54747 17.3292 7.54465 17.2967 7.53905L9.51542 6.16468C9.44076 6.15398 9.36901 6.12838 9.30444 6.0894C9.23987 6.05041 9.1838 5.99884 9.13956 5.93775C9.09533 5.87665 9.06383 5.80729 9.04695 5.73378C9.03006 5.66026 9.02814 5.58411 9.04128 5.50984C9.05442 5.43556 9.08237 5.36469 9.12346 5.30144C9.16455 5.23819 9.21794 5.18385 9.28045 5.14164C9.34296 5.09944 9.41333 5.07025 9.48736 5.05579C9.56138 5.04133 9.63756 5.04191 9.71136 5.05749L17.4926 6.43093C17.6386 6.45702 17.7684 6.53973 17.8538 6.66105C17.9391 6.78238 17.973 6.9325 17.9482 7.07874ZM17.4279 10.0309C17.4058 10.1617 17.3382 10.2805 17.237 10.3663C17.1357 10.4521 17.0075 10.4993 16.8748 10.4997C16.8433 10.4994 16.8119 10.4963 16.781 10.4903L8.9998 9.11686C8.85285 9.09088 8.72225 9.00759 8.63671 8.88531C8.55118 8.76303 8.51772 8.61178 8.5437 8.46483C8.56969 8.31788 8.65298 8.18728 8.77526 8.10174C8.89754 8.01621 9.04879 7.98276 9.19574 8.00874L16.977 9.38311C17.1221 9.41028 17.2508 9.49345 17.3352 9.61465C17.4195 9.73585 17.4528 9.88537 17.4279 10.0309ZM13.0217 12.2987C12.9985 12.4289 12.9303 12.5467 12.829 12.6315C12.7277 12.7164 12.5998 12.7629 12.4676 12.7628C12.4346 12.7627 12.4017 12.7599 12.3692 12.7544L8.47949 12.0672C8.40482 12.0565 8.33307 12.0309 8.2685 11.9919C8.20393 11.9529 8.14786 11.9013 8.10363 11.8402C8.05939 11.7792 8.0279 11.7098 8.01101 11.6363C7.99413 11.5628 7.9922 11.4866 8.00534 11.4123C8.01849 11.3381 8.04643 11.2672 8.08752 11.2039C8.12861 11.1407 8.182 11.0863 8.24451 11.0441C8.30703 11.0019 8.37739 10.9727 8.45142 10.9583C8.52545 10.9438 8.60162 10.9444 8.67542 10.96L12.5651 11.6462C12.638 11.6593 12.7076 11.6867 12.7699 11.7268C12.8322 11.7668 12.8859 11.8188 12.9281 11.8797C12.9702 11.9405 13 12.0092 13.0155 12.0816C13.0311 12.154 13.0322 12.2287 13.0189 12.3016L13.0217 12.2987Z" fill="#253F84"/>
</svg>