<?xml version="1.0" encoding="UTF-8"?>
<svg class="submenu-link-icon" viewBox="0 0 25 24" fill="none" version="1.1" xmlns="http://www.w3.org/2000/svg" xmlns:xlink="http://www.w3.org/1999/xlink">
    <path d="M24.0143 8.50426L12.7643 2.50426C12.6831 2.46044 12.5922 2.4375 12.4999 2.4375C12.4076 2.4375 12.3168 2.46044 12.2355 2.50426L0.985548 8.50426C0.895785 8.5523 0.820744 8.6238 0.768426 8.71114C0.716109 8.79848 0.688477 8.89838 0.688477 9.00019C0.688477 9.10201 0.716109 9.20191 0.768426 9.28925C0.820744 9.37659 0.895785 9.44809 0.985548 9.49613L3.68742 10.938V15.5899C3.68734 15.9121 3.8058 16.2231 4.02024 16.4636C5.2268 17.8071 7.93336 20.0627 12.4999 20.0627C14.1079 20.0778 15.7024 19.7675 17.1874 19.1505V22.5002C17.1874 22.6494 17.2467 22.7925 17.3522 22.8979C17.4577 23.0034 17.6007 23.0627 17.7499 23.0627C17.8991 23.0627 18.0422 23.0034 18.1477 22.8979C18.2532 22.7925 18.3124 22.6494 18.3124 22.5002V18.5955C19.3108 18.0332 20.2115 17.313 20.9796 16.4627C21.1945 16.2228 21.3131 15.9119 21.3124 15.5899V10.938L24.0143 9.49613C24.1041 9.44809 24.1791 9.37659 24.2314 9.28925C24.2837 9.20191 24.3114 9.10201 24.3114 9.00019C24.3114 8.89838 24.2837 8.79848 24.2314 8.71114C24.1791 8.6238 24.1041 8.5523 24.0143 8.50426ZM12.4999 18.9377C8.37492 18.9377 5.93742 16.9164 4.85742 15.7118C4.82838 15.6778 4.81242 15.6346 4.81242 15.5899V11.538L12.2355 15.4961C12.3169 15.5395 12.4077 15.5621 12.4999 15.5621C12.5921 15.5621 12.6829 15.5395 12.7643 15.4961L17.1874 13.1374V17.9186C15.9687 18.5018 14.4171 18.9377 12.4999 18.9377ZM20.1874 15.5899C20.1874 15.6346 20.1715 15.6778 20.1424 15.7118C19.6021 16.3103 18.9871 16.8368 18.3124 17.2783V12.5374L20.1874 11.538V15.5899ZM18.1109 11.3711C18.0819 11.3459 18.0505 11.3236 18.0171 11.3046L12.7671 8.50519C12.6363 8.44238 12.4863 8.43253 12.3484 8.47771C12.2106 8.52289 12.0955 8.6196 12.0272 8.74764C11.959 8.87567 11.9428 9.02513 11.9822 9.16479C12.0215 9.30445 12.1133 9.4235 12.2384 9.49707L16.9296 12.0002L12.4999 14.3627L2.44524 9.00019L12.4999 3.63769L22.5546 9.00019L18.1109 11.3711Z" fill="#253F84"/>
</svg>