<?xml version="1.0" encoding="UTF-8"?>
<svg class="submenu-link-icon" viewBox="0 0 25 24" fill="none" version="1.1" xmlns="http://www.w3.org/2000/svg" xmlns:xlink="http://www.w3.org/1999/xlink">
    <path d="M16.8126 21.7504C16.8126 21.8996 16.7534 22.0426 16.6479 22.1481C16.5424 22.2536 16.3993 22.3129 16.2501 22.3129H8.75013C8.60094 22.3129 8.45787 22.2536 8.35238 22.1481C8.24689 22.0426 8.18763 21.8996 8.18763 21.7504C8.18763 21.6012 8.24689 21.4581 8.35238 21.3526C8.45787 21.2471 8.60094 21.1879 8.75013 21.1879H16.2501C16.3993 21.1879 16.5424 21.2471 16.6479 21.3526C16.7534 21.4581 16.8126 21.6012 16.8126 21.7504ZM20.5626 9.75038C20.5658 10.9723 20.2897 12.1789 19.7555 13.2779C19.2213 14.3769 18.443 15.3393 17.4801 16.0916C17.2736 16.2503 17.1062 16.4541 16.9905 16.6875C16.8748 16.9208 16.814 17.1775 16.8126 17.4379V18.0004C16.8126 18.3485 16.6743 18.6823 16.4282 18.9285C16.1821 19.1746 15.8482 19.3129 15.5001 19.3129H9.50013C9.15203 19.3129 8.81819 19.1746 8.57205 18.9285C8.32591 18.6823 8.18763 18.3485 8.18763 18.0004V17.4379C8.18737 17.1802 8.12809 16.9259 8.01434 16.6947C7.90058 16.4634 7.73537 16.2613 7.53138 16.1038C6.57146 15.3562 5.79411 14.4002 5.25813 13.3079C4.72215 12.2157 4.44157 11.0158 4.43763 9.79913C4.41325 5.42945 7.94294 1.79288 12.3061 1.68788C13.3811 1.662 14.4504 1.85142 15.4511 2.245C16.4518 2.63857 17.3636 3.22835 18.133 3.97961C18.9023 4.73088 19.5136 5.62845 19.9309 6.61951C20.3481 7.61056 20.5629 8.67507 20.5626 9.75038ZM19.4376 9.75038C19.4379 8.82504 19.253 7.909 18.894 7.05617C18.5349 6.20335 18.0088 5.43098 17.3467 4.78453C16.6846 4.13808 15.8999 3.63062 15.0387 3.29201C14.1776 2.95341 13.2574 2.7905 12.3323 2.81288C8.57856 2.90663 5.542 6.03226 5.56263 9.78976C5.56618 10.8367 5.80771 11.8692 6.26897 12.8091C6.73023 13.749 7.39914 14.5717 8.22513 15.2151C8.5643 15.4777 8.83871 15.8147 9.02724 16.2001C9.21578 16.5854 9.31341 17.0089 9.31263 17.4379V18.0004C9.31263 18.0501 9.33238 18.0978 9.36754 18.133C9.40271 18.1681 9.4504 18.1879 9.50013 18.1879H11.9376V13.7338L9.10263 10.8979C9.00327 10.7913 8.94917 10.6502 8.95174 10.5045C8.95432 10.3588 9.01335 10.2197 9.11641 10.1167C9.21947 10.0136 9.35851 9.95457 9.50423 9.952C9.64996 9.94943 9.79099 10.0035 9.89763 10.1029L12.5001 12.7054L15.1026 10.1029C15.2093 10.0035 15.3503 9.94943 15.496 9.952C15.6417 9.95457 15.7808 10.0136 15.8838 10.1167C15.9869 10.2197 16.0459 10.3588 16.0485 10.5045C16.0511 10.6502 15.997 10.7913 15.8976 10.8979L13.0626 13.7338V18.1879H15.5001C15.5499 18.1879 15.5975 18.1681 15.6327 18.133C15.6679 18.0978 15.6876 18.0501 15.6876 18.0004V17.4379C15.6888 17.0073 15.7882 16.5827 15.9783 16.1964C16.1683 15.81 16.4441 15.4722 16.7845 15.2085C17.6136 14.5612 18.2836 13.7328 18.7434 12.7868C19.2033 11.8408 19.4407 10.8022 19.4376 9.75038Z" fill="#253F84"/>
</svg>