<?xml version="1.0" encoding="UTF-8"?>
<svg class="submenu-link-icon" viewBox="0 0 25 24" fill="none" version="1.1" xmlns="http://www.w3.org/2000/svg" xmlns:xlink="http://www.w3.org/1999/xlink">
    <path d="M21.125 8.30543L4.6175 3.24293C4.42212 3.18594 4.21616 3.17517 4.0159 3.21147C3.81564 3.24777 3.62657 3.33015 3.46362 3.45209C3.30067 3.57402 3.16832 3.73219 3.07701 3.91408C2.9857 4.09596 2.93794 4.2966 2.9375 4.50012V18.0001C2.9375 18.3482 3.07578 18.6821 3.32192 18.9282C3.56806 19.1743 3.9019 19.3126 4.25 19.3126C4.37696 19.3117 4.50317 19.2931 4.625 19.2573L12.6875 16.7814V18.0001C12.6875 18.3482 12.8258 18.6821 13.0719 18.9282C13.3181 19.1743 13.6519 19.3126 14 19.3126H17C17.3481 19.3126 17.6819 19.1743 17.9281 18.9282C18.1742 18.6821 18.3125 18.3482 18.3125 18.0001V15.0582L21.125 14.1967C21.3955 14.1149 21.6326 13.9485 21.8014 13.7218C21.9702 13.4951 22.0617 13.2202 22.0625 12.9376V9.56262C22.0624 9.28007 21.9711 9.00511 21.8022 8.77861C21.6333 8.55211 21.3958 8.38616 21.125 8.30543ZM4.3025 18.1801C4.27456 18.1883 4.2451 18.1898 4.21646 18.1846C4.18782 18.1794 4.16079 18.1676 4.1375 18.1501C4.11421 18.1327 4.09531 18.11 4.0823 18.084C4.06928 18.0579 4.0625 18.0292 4.0625 18.0001V4.50012C4.0625 4.47101 4.06928 4.4423 4.0823 4.41627C4.09531 4.39023 4.11421 4.36758 4.1375 4.35012C4.17011 4.32607 4.20948 4.31295 4.25 4.31262C4.26559 4.31297 4.28105 4.3155 4.29594 4.32012L12.6875 6.89356V15.6076L4.3025 18.1801ZM17.1875 18.0001C17.1875 18.0498 17.1677 18.0975 17.1326 18.1327C17.0974 18.1679 17.0497 18.1876 17 18.1876H14C13.9503 18.1876 13.9026 18.1679 13.8674 18.1327C13.8323 18.0975 13.8125 18.0498 13.8125 18.0001V16.4392L17.1875 15.4079V18.0001ZM20.9375 12.9376C20.9375 12.9782 20.9243 13.0177 20.9 13.0501C20.8757 13.0826 20.8414 13.1063 20.8025 13.1176H20.795L13.8125 15.2626V7.23856L20.8025 9.38262C20.8414 9.39398 20.8757 9.41766 20.9 9.45012C20.9243 9.48257 20.9375 9.52205 20.9375 9.56262V12.9376Z" fill="#253F84"/>
</svg>