<?xml version="1.0" encoding="UTF-8"?>
<svg class="submenu-link-icon" viewBox="0 0 25 24" fill="none" version="1.1" xmlns="http://www.w3.org/2000/svg" xmlns:xlink="http://www.w3.org/1999/xlink">
    <path d="M16.0625 12C16.0625 12.1492 16.0032 12.2923 15.8977 12.3977C15.7923 12.5032 15.6492 12.5625 15.5 12.5625H9.5C9.35082 12.5625 9.20774 12.5032 9.10225 12.3977C8.99676 12.2923 8.9375 12.1492 8.9375 12C8.9375 11.8508 8.99676 11.7077 9.10225 11.6023C9.20774 11.4968 9.35082 11.4375 9.5 11.4375H15.5C15.6492 11.4375 15.7923 11.4968 15.8977 11.6023C16.0032 11.7077 16.0625 11.8508 16.0625 12ZM15.5 14.4375H9.5C9.35082 14.4375 9.20774 14.4968 9.10225 14.6023C8.99676 14.7077 8.9375 14.8508 8.9375 15C8.9375 15.1492 8.99676 15.2923 9.10225 15.3977C9.20774 15.5032 9.35082 15.5625 9.5 15.5625H15.5C15.6492 15.5625 15.7923 15.5032 15.8977 15.3977C16.0032 15.2923 16.0625 15.1492 16.0625 15C16.0625 14.8508 16.0032 14.7077 15.8977 14.6023C15.7923 14.4968 15.6492 14.4375 15.5 14.4375ZM20.5625 4.5V18.75C20.5625 19.4959 20.2662 20.2113 19.7387 20.7387C19.2113 21.2662 18.4959 21.5625 17.75 21.5625H7.25C6.50408 21.5625 5.78871 21.2662 5.26126 20.7387C4.73382 20.2113 4.4375 19.4959 4.4375 18.75V4.5C4.4375 4.1519 4.57578 3.81806 4.82192 3.57192C5.06806 3.32578 5.4019 3.1875 5.75 3.1875H7.4375V2.25C7.4375 2.10082 7.49676 1.95774 7.60225 1.85225C7.70774 1.74676 7.85082 1.6875 8 1.6875C8.14918 1.6875 8.29226 1.74676 8.39775 1.85225C8.50324 1.95774 8.5625 2.10082 8.5625 2.25V3.1875H11.9375V2.25C11.9375 2.10082 11.9968 1.95774 12.1023 1.85225C12.2077 1.74676 12.3508 1.6875 12.5 1.6875C12.6492 1.6875 12.7923 1.74676 12.8977 1.85225C13.0032 1.95774 13.0625 2.10082 13.0625 2.25V3.1875H16.4375V2.25C16.4375 2.10082 16.4968 1.95774 16.6023 1.85225C16.7077 1.74676 16.8508 1.6875 17 1.6875C17.1492 1.6875 17.2923 1.74676 17.3977 1.85225C17.5032 1.95774 17.5625 2.10082 17.5625 2.25V3.1875H19.25C19.5981 3.1875 19.9319 3.32578 20.1781 3.57192C20.4242 3.81806 20.5625 4.1519 20.5625 4.5ZM19.4375 4.5C19.4375 4.45027 19.4177 4.40258 19.3826 4.36742C19.3474 4.33225 19.2997 4.3125 19.25 4.3125H17.5625V5.25C17.5625 5.39918 17.5032 5.54226 17.3977 5.64775C17.2923 5.75324 17.1492 5.8125 17 5.8125C16.8508 5.8125 16.7077 5.75324 16.6023 5.64775C16.4968 5.54226 16.4375 5.39918 16.4375 5.25V4.3125H13.0625V5.25C13.0625 5.39918 13.0032 5.54226 12.8977 5.64775C12.7923 5.75324 12.6492 5.8125 12.5 5.8125C12.3508 5.8125 12.2077 5.75324 12.1023 5.64775C11.9968 5.54226 11.9375 5.39918 11.9375 5.25V4.3125H8.5625V5.25C8.5625 5.39918 8.50324 5.54226 8.39775 5.64775C8.29226 5.75324 8.14918 5.8125 8 5.8125C7.85082 5.8125 7.70774 5.75324 7.60225 5.64775C7.49676 5.54226 7.4375 5.39918 7.4375 5.25V4.3125H5.75C5.70027 4.3125 5.65258 4.33225 5.61742 4.36742C5.58225 4.40258 5.5625 4.45027 5.5625 4.5V18.75C5.5625 19.1976 5.74029 19.6268 6.05676 19.9432C6.37323 20.2597 6.80245 20.4375 7.25 20.4375H17.75C18.1976 20.4375 18.6268 20.2597 18.9432 19.9432C19.2597 19.6268 19.4375 19.1976 19.4375 18.75V4.5Z" fill="#253F84"/>
</svg>