<?xml version="1.0" encoding="UTF-8"?>
<svg class="submenu-link-icon" viewBox="0 0 25 24" fill="none" version="1.1" xmlns="http://www.w3.org/2000/svg" xmlns:xlink="http://www.w3.org/1999/xlink">
    <path d="M20.023 11.6028C20.0753 11.6551 20.1168 11.7171 20.1451 11.7854C20.1734 11.8537 20.188 11.9269 20.188 12.0008C20.188 12.0747 20.1734 12.1479 20.1451 12.2162C20.1168 12.2845 20.0753 12.3465 20.023 12.3988L12.3299 20.0863C11.3802 21.0356 10.0923 21.5687 8.7495 21.5685C7.40671 21.5682 6.11902 21.0345 5.16971 20.0849C4.2204 19.1352 3.68724 17.8473 3.6875 16.5045C3.68776 15.1617 4.22144 13.874 5.17112 12.9247L14.4777 3.4822C14.8084 3.15121 15.201 2.88859 15.6332 2.70934C16.0654 2.53009 16.5286 2.43772 16.9965 2.4375C17.4644 2.43728 17.9277 2.52922 18.3601 2.70807C18.7924 2.88692 19.1853 3.14917 19.5163 3.47986C19.8473 3.81054 20.1099 4.20318 20.2891 4.63536C20.4684 5.06754 20.5608 5.53079 20.561 5.99867C20.5612 6.46654 20.4693 6.92988 20.2904 7.36223C20.1116 7.79457 19.8493 8.18746 19.5186 8.51845L10.2111 17.9572C10.0197 18.1489 9.79246 18.3011 9.54227 18.405C9.29208 18.509 9.02387 18.5626 8.75295 18.5628C8.48204 18.5631 8.21372 18.51 7.96333 18.4066C7.71294 18.3031 7.48537 18.1514 7.29362 17.96C7.10187 17.7686 6.94969 17.5414 6.84578 17.2912C6.74186 17.041 6.68824 16.7728 6.68798 16.5018C6.68772 16.2309 6.74082 15.9626 6.84425 15.7122C6.94769 15.4618 7.09943 15.2343 7.29081 15.0425L15.0983 7.1047C15.1501 7.05201 15.2118 7.01004 15.2799 6.98119C15.3479 6.95234 15.421 6.93718 15.4949 6.93657C15.5688 6.93596 15.6421 6.94992 15.7106 6.97764C15.7792 7.00536 15.8416 7.04631 15.8942 7.09814C15.9469 7.14997 15.9889 7.21167 16.0178 7.27972C16.0466 7.34777 16.0618 7.42084 16.0624 7.49475C16.063 7.56866 16.049 7.64196 16.0213 7.71048C15.9936 7.779 15.9526 7.84138 15.9008 7.89407L8.09331 15.8356C8.00602 15.9225 7.93669 16.0257 7.88929 16.1393C7.84188 16.253 7.81733 16.3749 7.81702 16.498C7.81672 16.6211 7.84067 16.7431 7.88751 16.857C7.93435 16.9709 8.00317 17.0744 8.09003 17.1617C8.17688 17.249 8.28008 17.3183 8.39373 17.3657C8.50738 17.4132 8.62925 17.4377 8.75239 17.438C8.87553 17.4383 8.99753 17.4144 9.11141 17.3675C9.22529 17.3207 9.32883 17.2519 9.41612 17.165L18.7199 7.72532C19.1774 7.26857 19.4347 6.64879 19.4352 6.00231C19.4357 5.35584 19.1794 4.73564 18.7227 4.27814C18.2659 3.82064 17.6461 3.56332 16.9997 3.56279C16.3532 3.56227 15.733 3.81857 15.2755 4.27532L5.968 13.7141C5.22904 14.4522 4.81355 15.4536 4.81293 16.498C4.81232 17.5424 5.22662 18.5443 5.96471 19.2833C6.7028 20.0223 7.70421 20.4377 8.74864 20.4384C9.79307 20.439 10.795 20.0247 11.5339 19.2866L19.2271 11.5991C19.2795 11.547 19.3418 11.5058 19.4102 11.4778C19.4786 11.4499 19.5519 11.4356 19.6258 11.436C19.6997 11.4363 19.7729 11.4512 19.841 11.4799C19.9092 11.5085 19.971 11.5503 20.023 11.6028Z" fill="#253F84"/>
</svg>