<?xml version="1.0" encoding="UTF-8"?>
<svg class="submenu-link-icon" viewBox="0 0 25 24" fill="none" version="1.1" xmlns="http://www.w3.org/2000/svg" xmlns:xlink="http://www.w3.org/1999/xlink">
    <path d="M22.5851 2.59712C22.4946 2.519 22.3846 2.46706 22.2668 2.4469C22.149 2.42674 22.0279 2.43914 21.9166 2.48275L2.91725 9.91806C2.68616 10.0085 2.49064 10.1714 2.36006 10.3825C2.22948 10.5935 2.17088 10.8412 2.19307 11.0883C2.21526 11.3355 2.31704 11.5688 2.48312 11.7532C2.6492 11.9375 2.87062 12.0631 3.11412 12.1109L8.18787 13.1074V18.7502C8.18798 19.0118 8.26625 19.2675 8.41266 19.4842C8.55906 19.701 8.76691 19.8691 9.00953 19.967C9.25214 20.0648 9.51846 20.0879 9.7743 20.0333C10.0301 19.9787 10.2638 19.8489 10.4454 19.6606L12.9429 17.0702L16.841 20.4874C17.079 20.698 17.3857 20.8144 17.7035 20.8146C17.8423 20.8143 17.9802 20.7925 18.1122 20.7499C18.3288 20.6814 18.5236 20.5573 18.6772 20.39C18.8309 20.2227 18.938 20.0181 18.9879 19.7965L22.796 3.24118C22.8228 3.1248 22.8173 3.00331 22.7801 2.88982C22.7429 2.77632 22.6755 2.67512 22.5851 2.59712ZM3.31756 11.0037C3.31397 10.994 3.31397 10.9834 3.31756 10.9737C3.3218 10.9704 3.32655 10.9679 3.33162 10.9662L18.3044 5.10493L8.62006 12.0424L3.33162 11.0074L3.31756 11.0037ZM9.63537 18.8787C9.60953 18.9055 9.5763 18.924 9.5399 18.9319C9.5035 18.9397 9.46559 18.9365 9.43099 18.9228C9.3964 18.909 9.36669 18.8852 9.34565 18.8545C9.32462 18.8238 9.31321 18.7875 9.31287 18.7502V13.8856L12.0963 16.3231L9.63537 18.8787ZM17.8919 19.5424C17.885 19.5741 17.8697 19.6034 17.8476 19.6271C17.8255 19.6509 17.7974 19.6683 17.7663 19.6774C17.7346 19.6886 17.7004 19.691 17.6674 19.6844C17.6344 19.6778 17.6038 19.6624 17.5788 19.6399L9.65412 12.6884L21.4066 4.26587L17.8919 19.5424Z" fill="#253F84"/>
</svg>