<?xml version="1.0" encoding="UTF-8"?>
<svg class="submenu-link-icon" viewBox="0 0 25 24" fill="none" version="1.1" xmlns="http://www.w3.org/2000/svg" xmlns:xlink="http://www.w3.org/1999/xlink">
    <path d="M9.875 5.4375H4.25C3.9019 5.4375 3.56806 5.57578 3.32192 5.82192C3.07578 6.06806 2.9375 6.4019 2.9375 6.75V12.75C2.9375 13.0981 3.07578 13.4319 3.32192 13.6781C3.56806 13.9242 3.9019 14.0625 4.25 14.0625H10.0625V15C10.0625 15.8454 9.72668 16.6561 9.1289 17.2539C8.53113 17.8517 7.72038 18.1875 6.875 18.1875C6.72582 18.1875 6.58274 18.2468 6.47725 18.3523C6.37176 18.4577 6.3125 18.6008 6.3125 18.75C6.3125 18.8992 6.37176 19.0423 6.47725 19.1477C6.58274 19.2532 6.72582 19.3125 6.875 19.3125C8.01829 19.311 9.11433 18.8562 9.92275 18.0478C10.7312 17.2393 11.186 16.1433 11.1875 15V6.75C11.1875 6.4019 11.0492 6.06806 10.8031 5.82192C10.5569 5.57578 10.2231 5.4375 9.875 5.4375ZM10.0625 12.9375H4.25C4.20027 12.9375 4.15258 12.9177 4.11742 12.8826C4.08225 12.8474 4.0625 12.7997 4.0625 12.75V6.75C4.0625 6.70027 4.08225 6.65258 4.11742 6.61742C4.15258 6.58225 4.20027 6.5625 4.25 6.5625H9.875C9.92473 6.5625 9.97242 6.58225 10.0076 6.61742C10.0427 6.65258 10.0625 6.70027 10.0625 6.75V12.9375ZM20.75 5.4375H15.125C14.7769 5.4375 14.4431 5.57578 14.1969 5.82192C13.9508 6.06806 13.8125 6.4019 13.8125 6.75V12.75C13.8125 13.0981 13.9508 13.4319 14.1969 13.6781C14.4431 13.9242 14.7769 14.0625 15.125 14.0625H20.9375V15C20.9375 15.8454 20.6017 16.6561 20.0039 17.2539C19.4061 17.8517 18.5954 18.1875 17.75 18.1875C17.6008 18.1875 17.4577 18.2468 17.3523 18.3523C17.2468 18.4577 17.1875 18.6008 17.1875 18.75C17.1875 18.8992 17.2468 19.0423 17.3523 19.1477C17.4577 19.2532 17.6008 19.3125 17.75 19.3125C18.8933 19.311 19.9893 18.8562 20.7978 18.0478C21.6062 17.2393 22.061 16.1433 22.0625 15V6.75C22.0625 6.4019 21.9242 6.06806 21.6781 5.82192C21.4319 5.57578 21.0981 5.4375 20.75 5.4375ZM20.9375 12.9375H15.125C15.0753 12.9375 15.0276 12.9177 14.9924 12.8826C14.9573 12.8474 14.9375 12.7997 14.9375 12.75V6.75C14.9375 6.70027 14.9573 6.65258 14.9924 6.61742C15.0276 6.58225 15.0753 6.5625 15.125 6.5625H20.75C20.7997 6.5625 20.8474 6.58225 20.8826 6.61742C20.9177 6.65258 20.9375 6.70027 20.9375 6.75V12.9375Z" fill="#253F84"/>
</svg>