<?xml version="1.0" encoding="UTF-8"?>
<svg class="submenu-link-icon" viewBox="0 0 25 24" fill="none" version="1.1" xmlns="http://www.w3.org/2000/svg" xmlns:xlink="http://www.w3.org/1999/xlink">
    <path d="M14.5624 20.9997C14.5624 21.1489 14.5031 21.292 14.3976 21.3975C14.2922 21.5029 14.1491 21.5622 13.9999 21.5622H10.9999C10.8507 21.5622 10.7076 21.5029 10.6021 21.3975C10.4967 21.292 10.4374 21.1489 10.4374 20.9997C10.4374 20.8505 10.4967 20.7074 10.6021 20.602C10.7076 20.4965 10.8507 20.4372 10.9999 20.4372H13.9999C14.1491 20.4372 14.2922 20.4965 14.3976 20.602C14.5031 20.7074 14.5624 20.8505 14.5624 20.9997ZM12.4999 10.3122C12.6853 10.3122 12.8666 10.2572 13.0207 10.1542C13.1749 10.0512 13.2951 9.90478 13.366 9.73347C13.437 9.56217 13.4556 9.37367 13.4194 9.19181C13.3832 9.00995 13.2939 8.84291 13.1628 8.71179C13.0317 8.58068 12.8646 8.49139 12.6828 8.45522C12.5009 8.41905 12.3124 8.43761 12.1411 8.50857C11.9698 8.57953 11.8234 8.69969 11.7204 8.85386C11.6174 9.00803 11.5624 9.18929 11.5624 9.37471C11.5624 9.62335 11.6612 9.8618 11.837 10.0376C12.0128 10.2134 12.2513 10.3122 12.4999 10.3122ZM21.2815 14.5685L20.1227 19.781C20.0749 19.9977 19.9729 20.1988 19.8262 20.3654C19.6795 20.532 19.493 20.6587 19.2841 20.7336C19.0751 20.8085 18.8506 20.8292 18.6315 20.7938C18.4124 20.7584 18.2058 20.6679 18.0311 20.531L15.4258 18.5622H9.57677L6.96864 20.531C6.79396 20.6686 6.58717 20.7596 6.36769 20.7954C6.14821 20.8312 5.92322 20.8107 5.71385 20.7357C5.50449 20.6607 5.3176 20.5338 5.17074 20.3668C5.02389 20.1998 4.92187 19.9982 4.87427 19.781L3.71833 14.5685C3.6752 14.3725 3.67735 14.1694 3.72463 13.9744C3.7719 13.7794 3.86306 13.5979 3.99114 13.4435L6.70989 10.1847C6.79399 9.00311 7.06223 7.84191 7.50489 6.74314C8.69739 3.75439 10.8349 1.87939 11.6983 1.21189C11.9285 1.0334 12.2115 0.936523 12.5027 0.936523C12.794 0.936523 13.0769 1.0334 13.3071 1.21189C14.1705 1.87939 16.3071 3.75439 17.5005 6.74314C17.9432 7.84191 18.2114 9.00311 18.2955 10.1847L21.0143 13.4435C21.1414 13.5983 21.2315 13.7802 21.2778 13.9751C21.3241 14.17 21.3254 14.373 21.2815 14.5685ZM9.71177 17.4372H15.288C17.344 13.8316 17.7368 10.375 16.4533 7.16033C15.333 4.34783 13.233 2.57877 12.6161 2.09783C12.583 2.07167 12.5421 2.05744 12.4999 2.05744C12.4577 2.05744 12.4167 2.07167 12.3836 2.09783C11.7668 2.57502 9.66489 4.34783 8.54645 7.16033C7.26302 10.375 7.65583 13.8316 9.71177 17.4372ZM8.65614 17.8497C7.53114 15.835 6.88427 13.856 6.72302 11.9256L4.85552 14.1635C4.83716 14.1854 4.82406 14.2113 4.81724 14.239C4.81041 14.2668 4.81004 14.2958 4.81614 14.3238L5.97583 19.54C5.98272 19.5711 5.99741 19.5999 6.01851 19.6237C6.03962 19.6475 6.06643 19.6656 6.09644 19.6762C6.12645 19.6868 6.15867 19.6896 6.19005 19.6843C6.22143 19.679 6.25095 19.6658 6.27583 19.646L6.28802 19.6356L8.65614 17.8497ZM20.1471 14.1635L18.2824 11.9256C18.1211 13.856 17.4761 15.835 16.3493 17.8497L18.7146 19.631L18.7268 19.6413C18.7516 19.6611 18.7812 19.6743 18.8125 19.6796C18.8439 19.6849 18.8761 19.6821 18.9062 19.6715C18.9362 19.6609 18.963 19.6429 18.9841 19.619C19.0052 19.5952 19.0199 19.5664 19.0268 19.5353L20.1874 14.3238C20.193 14.2955 20.192 14.2664 20.1845 14.2386C20.1771 14.2108 20.1633 14.1851 20.1443 14.1635H20.1471Z" fill="#253F84"/>
</svg>