<?xml version="1.0" encoding="UTF-8"?>
<svg class="submenu-link-icon" viewBox="0 0 25 24" fill="none" version="1.1" xmlns="http://www.w3.org/2000/svg" xmlns:xlink="http://www.w3.org/1999/xlink">
    <path d="M11.0558 14.8525C12.1003 14.2605 12.9195 13.3393 13.3856 12.2328C13.8517 11.1263 13.9384 9.89661 13.6323 8.73562C13.3261 7.57463 12.6443 6.54761 11.6932 5.8148C10.7421 5.08198 9.5752 4.68457 8.37453 4.68457C7.17385 4.68457 6.00693 5.08198 5.05582 5.8148C4.10471 6.54761 3.4229 7.57463 3.11675 8.73562C2.81061 9.89661 2.89734 11.1263 3.36342 12.2328C3.8295 13.3393 4.64872 14.2605 5.69328 14.8525C3.75731 15.4697 2.09472 16.7381 0.987963 18.4422C0.906409 18.5672 0.877828 18.7194 0.908508 18.8654C0.939188 19.0114 1.02662 19.1393 1.15156 19.2208C1.2765 19.3024 1.42872 19.331 1.57474 19.3003C1.72075 19.2696 1.8486 19.1822 1.93015 19.0572C2.62822 17.9839 3.58331 17.102 4.70871 16.4914C5.83411 15.8809 7.09418 15.5611 8.37453 15.5611C9.65487 15.5611 10.9149 15.8809 12.0403 16.4914C13.1657 17.102 14.1208 17.9839 14.8189 19.0572C14.9058 19.1686 15.0313 19.2431 15.1706 19.2662C15.31 19.2892 15.4528 19.259 15.5709 19.1815C15.689 19.1041 15.7736 18.985 15.808 18.8481C15.8423 18.7111 15.8239 18.5662 15.7564 18.4422C14.6508 16.739 12.99 15.4707 11.0558 14.8525ZM4.06203 10.1247C4.06203 9.27179 4.31495 8.43801 4.78881 7.72883C5.26268 7.01964 5.9362 6.4669 6.7242 6.14049C7.51221 5.81409 8.37931 5.72869 9.21585 5.89509C10.0524 6.06149 10.8208 6.47221 11.4239 7.07533C12.027 7.67844 12.4378 8.44685 12.6042 9.2834C12.7706 10.1199 12.6852 10.987 12.3588 11.775C12.0324 12.5631 11.4796 13.2366 10.7704 13.7104C10.0612 14.1843 9.22746 14.4372 8.37453 14.4372C7.23124 14.4357 6.1352 13.9809 5.32677 13.1725C4.51834 12.364 4.06351 11.268 4.06203 10.1247ZM23.8433 19.2185C23.7184 19.2999 23.5664 19.3285 23.4205 19.2979C23.2746 19.2673 23.1468 19.1801 23.0652 19.0553C22.3683 17.9819 21.4139 17.1 20.289 16.4899C19.164 15.8797 17.9043 15.5608 16.6245 15.5622C16.4753 15.5622 16.3323 15.503 16.2268 15.3975C16.1213 15.292 16.062 15.1489 16.062 14.9997C16.062 14.8505 16.1213 14.7075 16.2268 14.602C16.3323 14.4965 16.4753 14.4372 16.6245 14.4372C17.2596 14.4366 17.8866 14.2957 18.4609 14.0246C19.0352 13.7536 19.5426 13.359 19.9467 12.8692C20.3508 12.3793 20.6418 11.8062 20.7988 11.1909C20.9558 10.5756 20.975 9.93316 20.8549 9.30956C20.7349 8.68596 20.4786 8.09657 20.1044 7.58349C19.7302 7.07041 19.2473 6.64632 18.6902 6.3415C18.1331 6.03668 17.5155 5.85866 16.8816 5.82016C16.2477 5.78166 15.6132 5.88363 15.0233 6.11879C14.9546 6.14692 14.881 6.16117 14.8067 6.16072C14.7325 6.16028 14.6591 6.14514 14.5907 6.11618C14.5224 6.08723 14.4604 6.04502 14.4085 5.99201C14.3565 5.939 14.3155 5.87622 14.2879 5.8073C14.2603 5.73838 14.2467 5.66468 14.2477 5.59045C14.2487 5.51622 14.2644 5.44292 14.2939 5.37479C14.3234 5.30666 14.3661 5.24504 14.4195 5.19349C14.4729 5.14193 14.536 5.10146 14.6052 5.07441C15.8847 4.56429 17.3101 4.5588 18.5935 5.05904C19.8769 5.55928 20.9227 6.52796 21.5195 7.76942C22.1163 9.01088 22.2197 10.4326 21.8088 11.7473C21.3979 13.0621 20.5033 14.1719 19.3058 14.8525C21.2417 15.4697 22.9043 16.7381 24.0111 18.4422C24.0915 18.5675 24.119 18.7195 24.0876 18.865C24.0561 19.0105 23.9683 19.1376 23.8433 19.2185Z" fill="#253F84"/>
</svg>