<?xml version="1.0" encoding="UTF-8"?>
<svg class="submenu-link-icon" viewBox="0 0 25 24" fill="none" version="1.1" xmlns="http://www.w3.org/2000/svg" xmlns:xlink="http://www.w3.org/1999/xlink">
    <path d="M23.5222 11.0419L22.2097 7.76062C22.113 7.51654 21.945 7.30726 21.7276 7.1601C21.5102 7.01293 21.2535 6.9347 20.9909 6.93563H17.5625V6C17.5625 5.85082 17.5032 5.70774 17.3977 5.60225C17.2923 5.49676 17.1492 5.4375 17 5.4375H2.75C2.4019 5.4375 2.06806 5.57578 1.82192 5.82192C1.57578 6.06806 1.4375 6.4019 1.4375 6.75V17.25C1.4375 17.5981 1.57578 17.9319 1.82192 18.1781C2.06806 18.4242 2.4019 18.5625 2.75 18.5625H4.49375C4.62285 19.1983 4.96779 19.7699 5.4701 20.1805C5.97242 20.591 6.60124 20.8153 7.25 20.8153C7.89876 20.8153 8.52758 20.591 9.0299 20.1805C9.53221 19.7699 9.87715 19.1983 10.0063 18.5625H14.9938C15.1229 19.1983 15.4678 19.7699 15.9701 20.1805C16.4724 20.591 17.1012 20.8153 17.75 20.8153C18.3988 20.8153 19.0276 20.591 19.5299 20.1805C20.0322 19.7699 20.3771 19.1983 20.5062 18.5625H22.25C22.5981 18.5625 22.9319 18.4242 23.1781 18.1781C23.4242 17.9319 23.5625 17.5981 23.5625 17.25V11.25C23.5624 11.1787 23.5487 11.1081 23.5222 11.0419ZM17.5625 8.0625H20.9919C21.0294 8.06246 21.0661 8.0737 21.0972 8.09477C21.1283 8.11583 21.1524 8.14574 21.1663 8.18063L22.1694 10.6875H17.5625V8.0625ZM2.5625 6.75C2.5625 6.70027 2.58225 6.65258 2.61742 6.61742C2.65258 6.58225 2.70027 6.5625 2.75 6.5625H16.4375V12.9375H2.5625V6.75ZM7.25 19.6875C6.91624 19.6875 6.58998 19.5885 6.31248 19.4031C6.03497 19.2177 5.81868 18.9541 5.69095 18.6458C5.56323 18.3374 5.52981 17.9981 5.59492 17.6708C5.66004 17.3434 5.82076 17.0428 6.05676 16.8068C6.29276 16.5708 6.59344 16.41 6.92078 16.3449C7.24813 16.2798 7.58743 16.3132 7.89578 16.441C8.20413 16.5687 8.46768 16.785 8.6531 17.0625C8.83853 17.34 8.9375 17.6662 8.9375 18C8.9375 18.4476 8.75971 18.8768 8.44324 19.1932C8.12677 19.5097 7.69755 19.6875 7.25 19.6875ZM14.9938 17.4375H10.0063C9.87715 16.8017 9.53221 16.2301 9.0299 15.8195C8.52758 15.409 7.89876 15.1847 7.25 15.1847C6.60124 15.1847 5.97242 15.409 5.4701 15.8195C4.96779 16.2301 4.62285 16.8017 4.49375 17.4375H2.75C2.70027 17.4375 2.65258 17.4177 2.61742 17.3826C2.58225 17.3474 2.5625 17.2997 2.5625 17.25V14.0625H16.4375V15.5138C16.07 15.7082 15.75 15.9815 15.5004 16.3141C15.2508 16.6467 15.0778 17.0303 14.9938 17.4375ZM17.75 19.6875C17.4162 19.6875 17.09 19.5885 16.8125 19.4031C16.535 19.2177 16.3187 18.9541 16.191 18.6458C16.0632 18.3374 16.0298 17.9981 16.0949 17.6708C16.16 17.3434 16.3208 17.0428 16.5568 16.8068C16.7928 16.5708 17.0934 16.41 17.4208 16.3449C17.7481 16.2798 18.0874 16.3132 18.3958 16.441C18.7041 16.5687 18.9677 16.785 19.1531 17.0625C19.3385 17.34 19.4375 17.6662 19.4375 18C19.4375 18.4476 19.2597 18.8768 18.9432 19.1932C18.6268 19.5097 18.1976 19.6875 17.75 19.6875ZM22.4375 17.25C22.4375 17.2997 22.4177 17.3474 22.3826 17.3826C22.3474 17.4177 22.2997 17.4375 22.25 17.4375H20.5062C20.3758 16.8026 20.0304 16.2322 19.5283 15.8223C19.0262 15.4125 18.3981 15.1882 17.75 15.1875C17.6872 15.1875 17.6244 15.1875 17.5625 15.1941V11.8125H22.4375V17.25Z" fill="#253F84"/>
</svg>